<svg xmlns="http://www.w3.org/2000/svg" viewBox="0 0 1200 246" width="1200" height="246" role="img" aria-labelledby="sheet-title sheet-desc" preserveAspectRatio="xMidYMid meet">
<title id="sheet-title">Language distribution across 25 repositories</title>
<desc id="sheet-desc">JAVASCRIPT 59.9%, HTML 14.0%, CSS 13.1%, TYPESCRIPT 10.1%, C# 2.2%, OTHER 0.7%</desc>
<style>
.wipe{transform:translateY(306px);animation:print-wipe 1.348s steps(36,end) 0.66s 1 backwards}
.scan{transform:translateY(306px);animation:print-wipe 1.348s steps(36,end) 0.66s 1 backwards,print-lift 1.348s linear 0.66s 1 backwards}

@keyframes print-wipe{from{transform:translateY(0)}to{transform:translateY(306px)}}
@keyframes print-lift{0%,92%{opacity:1}100%{opacity:0}}
@media(prefers-reduced-motion:reduce){.wipe,.scan{animation:none}.scan{opacity:0}}</style>
<defs><pattern id="lang-solid" width="6" height="6" patternUnits="userSpaceOnUse"><rect width="6" height="6" fill="#F0F0EC"/></pattern><pattern id="lang-checker" width="6" height="6" patternUnits="userSpaceOnUse"><path d="M0 0h3v3H0zM3 3h3v3H3z" fill="#F0F0EC"/></pattern><pattern id="lang-hatch" width="6" height="6" patternUnits="userSpaceOnUse"><path d="M-2 2L2-2M0 6L6 0M4 8L8 4" stroke="#F0F0EC" stroke-width="2" fill="none"/></pattern><pattern id="lang-rules" width="6" height="6" patternUnits="userSpaceOnUse"><path d="M0 0h6v2H0z" fill="#F0F0EC"/></pattern><pattern id="lang-columns" width="6" height="6" patternUnits="userSpaceOnUse"><path d="M0 0h2v6H0z" fill="#F0F0EC"/></pattern><pattern id="lang-grain" width="6" height="6" patternUnits="userSpaceOnUse"><path d="M2 2h2v2H2z" fill="#F0F0EC"/></pattern><linearGradient id="print-edge" x1="0" y1="0" x2="0" y2="1">
<stop offset="0" stop-color="#fff"/><stop offset="97.531%" stop-color="#fff"/><stop offset="100%" stop-color="#000"/>
</linearGradient>
<mask id="print-mask" maskUnits="userSpaceOnUse" x="0" y="0" width="1200" height="246">
<rect class="wipe" x="0" y="-486" width="1200" height="486" fill="url(#print-edge)"/>
</mask></defs>
<rect width="1200" height="246" fill="#0C0C0E"/>
<g mask="url(#print-mask)">
  <path d="M66.42 46L61.44 46L61.44 37.62L62.45 37.62L62.45 45.12L66.42 45.12L66.42 46M77.44 46L76.37 46L75.66 43.61L72.72 43.61L72.02 46L70.97 46L73.54 37.62L74.87 37.62L77.44 46M75.42 42.74L74.25 38.69L74.14 38.69L72.96 42.74L75.42 42.74M86.01 46L83.16 38.94L83.07 38.94L83.07 46L82.16 46L82.16 37.62L83.59 37.62L86.44 44.68L86.53 44.68L86.53 37.62L87.44 37.62L87.44 46L86.01 46M97.13 46L97.13 44.88L97.07 44.88Q96.96 45.12 96.82 45.35Q96.67 45.58 96.45 45.75Q96.23 45.93 95.92 46.04Q95.6 46.14 95.17 46.14L95.17 46.14Q93.8 46.14 93.14 45.04Q92.47 43.94 92.47 41.87L92.47 41.87Q92.47 39.71 93.2 38.6Q93.94 37.48 95.46 37.48L95.46 37.48Q96.05 37.48 96.48 37.64Q96.91 37.79 97.22 38.06Q97.52 38.32 97.73 38.65Q97.93 38.98 98.06 39.32L98.06 39.32L97.2 39.71Q97.09 39.44 96.95 39.19Q96.82 38.94 96.62 38.76Q96.42 38.57 96.14 38.46Q95.87 38.36 95.5 38.36L95.5 38.36Q94.49 38.36 94.01 39.11Q93.54 39.87 93.54 41.13L93.54 41.13L93.54 42.42Q93.54 43.06 93.64 43.58Q93.73 44.1 93.95 44.49Q94.18 44.87 94.53 45.08Q94.88 45.29 95.4 45.29L95.4 45.29Q96.22 45.29 96.67 44.8Q97.13 44.31 97.13 43.53L97.13 43.53L97.13 42.66L95.36 42.66L95.36 41.86L98.06 41.86L98.06 46L97.13 46M103.36 37.62L104.37 37.62L104.37 42.65Q104.37 43.26 104.4 43.74Q104.44 44.22 104.6 44.57Q104.75 44.91 105.08 45.09Q105.41 45.27 106 45.27L106 45.27Q106.59 45.27 106.92 45.09Q107.25 44.91 107.4 44.57Q107.56 44.22 107.6 43.74Q107.63 43.26 107.63 42.65L107.63 42.65L107.63 37.62L108.64 37.62L108.64 42.41Q108.64 43.35 108.55 44.04Q108.46 44.74 108.18 45.21Q107.9 45.68 107.37 45.91Q106.85 46.14 106 46.14L106 46.14Q105.15 46.14 104.63 45.91Q104.1 45.68 103.82 45.21Q103.54 44.74 103.45 44.04Q103.36 43.35 103.36 42.41L103.36 42.41L103.36 37.62M119.84 46L118.77 46L118.06 43.61L115.12 43.61L114.42 46L113.37 46L115.94 37.62L117.27 37.62L119.84 46M117.82 42.74L116.65 38.69L116.54 38.69L115.36 42.74L117.82 42.74M128.93 46L128.93 44.88L128.87 44.88Q128.76 45.12 128.62 45.35Q128.47 45.58 128.25 45.75Q128.03 45.93 127.72 46.04Q127.4 46.14 126.97 46.14L126.97 46.14Q125.6 46.14 124.94 45.04Q124.27 43.94 124.27 41.87L124.27 41.87Q124.27 39.71 125 38.6Q125.74 37.48 127.26 37.48L127.26 37.48Q127.85 37.48 128.28 37.64Q128.71 37.79 129.02 38.06Q129.32 38.32 129.53 38.65Q129.73 38.98 129.86 39.32L129.86 39.32L129 39.71Q128.89 39.44 128.75 39.19Q128.62 38.94 128.42 38.76Q128.22 38.57 127.94 38.46Q127.67 38.36 127.3 38.36L127.3 38.36Q126.29 38.36 125.81 39.11Q125.34 39.87 125.34 41.13L125.34 41.13L125.34 42.42Q125.34 43.06 125.44 43.58Q125.53 44.1 125.75 44.49Q125.98 44.87 126.33 45.08Q126.68 45.29 127.2 45.29L127.2 45.29Q128.02 45.29 128.47 44.8Q128.93 44.31 128.93 43.53L128.93 43.53L128.93 42.66L127.16 42.66L127.16 41.86L129.86 41.86L129.86 46L128.93 46M140.44 46L135.28 46L135.28 37.62L140.44 37.62L140.44 38.5L136.29 38.5L136.29 41.32L140.3 41.32L140.3 42.2L136.29 42.2L136.29 45.12L140.44 45.12L140.44 46M156.54 46L156.54 37.62L158.88 37.62Q160.42 37.62 161.17 38.68Q161.93 39.74 161.93 41.81L161.93 41.81Q161.93 43.89 161.17 44.94Q160.42 46 158.88 46L158.88 46L156.54 46M157.55 45.12L158.83 45.12Q159.84 45.12 160.35 44.43Q160.86 43.73 160.86 42.46L160.86 42.46L160.86 41.16Q160.86 39.89 160.35 39.2Q159.84 38.5 158.83 38.5L158.83 38.5L157.55 38.5L157.55 45.12M172.19 46L167.01 46L167.01 45.2L169.1 45.2L169.1 38.43L167.01 38.43L167.01 37.62L172.19 37.62L172.19 38.43L170.1 38.43L170.1 45.2L172.19 45.2L172.19 46M180.18 46.14L180.18 46.14Q179.05 46.14 178.33 45.73Q177.61 45.32 177.14 44.67L177.14 44.67L177.87 44.07Q178.36 44.68 178.91 44.98Q179.46 45.28 180.21 45.28L180.21 45.28Q181.12 45.28 181.6 44.86Q182.08 44.44 182.08 43.68L182.08 43.68Q182.08 43.07 181.74 42.73Q181.39 42.39 180.52 42.24L180.52 42.24L179.59 42.09Q178.98 41.98 178.56 41.76Q178.15 41.55 177.9 41.24Q177.64 40.94 177.54 40.57Q177.43 40.2 177.43 39.81L177.43 39.81Q177.43 38.66 178.18 38.07Q178.94 37.48 180.22 37.48L180.22 37.48Q181.23 37.48 181.92 37.82Q182.61 38.15 183.03 38.76L183.03 38.76L182.32 39.38Q181.98 38.92 181.48 38.63Q180.99 38.34 180.21 38.34L180.21 38.34Q179.36 38.34 178.9 38.7Q178.45 39.06 178.45 39.78L178.45 39.78Q178.45 40.35 178.79 40.7Q179.13 41.06 180.02 41.21L180.02 41.21L180.92 41.37Q181.53 41.48 181.95 41.69Q182.37 41.91 182.63 42.21Q182.89 42.51 183 42.88Q183.1 43.25 183.1 43.66L183.1 43.66Q183.1 44.82 182.34 45.48Q181.58 46.14 180.18 46.14M194.1 38.5L191.3 38.5L191.3 46L190.3 46L190.3 38.5L187.5 38.5L187.5 37.62L194.1 37.62L194.1 38.5M199.89 42.42L199.89 46L198.88 46L198.88 37.62L201.93 37.62Q203.09 37.62 203.7 38.26Q204.32 38.9 204.32 40.04L204.32 40.04Q204.32 41.06 203.79 41.67Q203.26 42.28 202.25 42.38L202.25 42.38L204.39 46L203.26 46L201.22 42.42L199.89 42.42M199.89 41.57L201.9 41.57Q202.54 41.57 202.89 41.25Q203.25 40.94 203.25 40.35L203.25 40.35L203.25 39.72Q203.25 39.14 202.89 38.82Q202.54 38.5 201.9 38.5L201.9 38.5L199.89 38.5L199.89 41.57M214.59 46L209.41 46L209.41 45.2L211.5 45.2L211.5 38.43L209.41 38.43L209.41 37.62L214.59 37.62L214.59 38.43L212.5 38.43L212.5 45.2L214.59 45.2L214.59 46M220.06 46L220.06 37.62L222.9 37.62Q223.98 37.62 224.59 38.21Q225.2 38.8 225.2 39.78L225.2 39.78Q225.2 40.54 224.84 40.97Q224.47 41.4 223.9 41.58L223.9 41.58L223.9 41.62Q224.6 41.79 225.06 42.25Q225.52 42.71 225.52 43.59L225.52 43.59Q225.52 44.09 225.35 44.54Q225.18 44.98 224.87 45.3Q224.57 45.63 224.15 45.81Q223.74 46 223.26 46L223.26 46L220.06 46M221.06 45.12L222.96 45.12Q223.66 45.12 224.05 44.81Q224.45 44.5 224.45 43.85L224.45 43.85L224.45 43.36Q224.45 42.72 224.05 42.41Q223.66 42.09 222.96 42.09L222.96 42.09L221.06 42.09L221.06 45.12M221.06 41.26L222.79 41.26Q223.43 41.26 223.79 40.98Q224.15 40.7 224.15 40.12L224.15 40.12L224.15 39.65Q224.15 39.08 223.79 38.79Q223.43 38.5 222.79 38.5L222.79 38.5L221.06 38.5L221.06 41.26M230.56 37.62L231.57 37.62L231.57 42.65Q231.57 43.26 231.6 43.74Q231.64 44.22 231.8 44.57Q231.95 44.91 232.28 45.09Q232.61 45.27 233.2 45.27L233.2 45.27Q233.79 45.27 234.12 45.09Q234.45 44.91 234.6 44.57Q234.76 44.22 234.8 43.74Q234.83 43.26 234.83 42.65L234.83 42.65L234.83 37.62L235.84 37.62L235.84 42.41Q235.84 43.35 235.75 44.04Q235.66 44.74 235.38 45.21Q235.1 45.68 234.57 45.91Q234.05 46.14 233.2 46.14L233.2 46.14Q232.35 46.14 231.83 45.91Q231.3 45.68 231.02 45.21Q230.74 44.74 230.65 44.04Q230.56 43.35 230.56 42.41L230.56 42.41L230.56 37.62M247.1 38.5L244.3 38.5L244.3 46L243.3 46L243.3 38.5L240.5 38.5L240.5 37.62L247.1 37.62L247.1 38.5M256.99 46L251.81 46L251.81 45.2L253.9 45.2L253.9 38.43L251.81 38.43L251.81 37.62L256.99 37.62L256.99 38.43L254.9 38.43L254.9 45.2L256.99 45.2L256.99 46M265 46.14L265 46.14Q264.23 46.14 263.68 45.85Q263.13 45.56 262.77 45Q262.41 44.45 262.24 43.65Q262.07 42.84 262.07 41.81L262.07 41.81Q262.07 40.79 262.24 39.98Q262.41 39.17 262.77 38.62Q263.13 38.07 263.68 37.77Q264.23 37.48 265 37.48L265 37.48Q265.77 37.48 266.32 37.77Q266.87 38.07 267.23 38.62Q267.59 39.17 267.76 39.98Q267.93 40.79 267.93 41.81L267.93 41.81Q267.93 42.84 267.76 43.65Q267.59 44.45 267.23 45Q266.87 45.56 266.32 45.85Q265.77 46.14 265 46.14M265 45.27L265 45.27Q265.5 45.27 265.85 45.07Q266.2 44.87 266.43 44.51Q266.66 44.15 266.76 43.64Q266.86 43.13 266.86 42.5L266.86 42.5L266.86 41.13Q266.86 40.5 266.76 39.99Q266.66 39.47 266.43 39.11Q266.2 38.75 265.85 38.55Q265.5 38.36 265 38.36L265 38.36Q264.5 38.36 264.15 38.55Q263.8 38.75 263.57 39.11Q263.34 39.47 263.24 39.99Q263.14 40.5 263.14 41.13L263.14 41.13L263.14 42.5Q263.14 43.13 263.24 43.64Q263.34 44.15 263.57 44.51Q263.8 44.87 264.15 45.07Q264.5 45.27 265 45.27M276.81 46L273.96 38.94L273.87 38.94L273.87 46L272.96 46L272.96 37.62L274.39 37.62L277.24 44.68L277.33 44.68L277.33 37.62L278.24 37.62L278.24 46L276.81 46M300.4 42.8L293.2 42.8L293.2 41.91L300.4 41.91L300.4 42.8M315.46 46L315.46 37.62L318.3 37.62Q319.38 37.62 319.99 38.21Q320.6 38.8 320.6 39.78L320.6 39.78Q320.6 40.54 320.24 40.97Q319.87 41.4 319.3 41.58L319.3 41.58L319.3 41.62Q320 41.79 320.46 42.25Q320.92 42.71 320.92 43.59L320.92 43.59Q320.92 44.09 320.75 44.54Q320.58 44.98 320.27 45.3Q319.97 45.63 319.55 45.81Q319.14 46 318.66 46L318.66 46L315.46 46M316.46 45.12L318.36 45.12Q319.06 45.12 319.45 44.81Q319.85 44.5 319.85 43.85L319.85 43.85L319.85 43.36Q319.85 42.72 319.45 42.41Q319.06 42.09 318.36 42.09L318.36 42.09L316.46 42.09L316.46 45.12M316.46 41.26L318.19 41.26Q318.83 41.26 319.19 40.98Q319.55 40.7 319.55 40.12L319.55 40.12L319.55 39.65Q319.55 39.08 319.19 38.79Q318.83 38.5 318.19 38.5L318.19 38.5L316.46 38.5L316.46 41.26M329.1 46L328.1 46L328.1 42.71L325.2 37.62L326.36 37.62L327.56 39.81L328.58 41.72L328.62 41.72L329.67 39.81L330.87 37.62L332 37.62L329.1 42.71L329.1 46M347.26 46L347.26 37.62L350.1 37.62Q351.18 37.62 351.79 38.21Q352.4 38.8 352.4 39.78L352.4 39.78Q352.4 40.54 352.04 40.97Q351.67 41.4 351.1 41.58L351.1 41.58L351.1 41.62Q351.8 41.79 352.26 42.25Q352.72 42.71 352.72 43.59L352.72 43.59Q352.72 44.09 352.55 44.54Q352.38 44.98 352.07 45.3Q351.77 45.63 351.35 45.81Q350.94 46 350.46 46L350.46 46L347.26 46M348.26 45.12L350.16 45.12Q350.86 45.12 351.25 44.81Q351.65 44.5 351.65 43.85L351.65 43.85L351.65 43.36Q351.65 42.72 351.25 42.41Q350.86 42.09 350.16 42.09L350.16 42.09L348.26 42.09L348.26 45.12M348.26 41.26L349.99 41.26Q350.63 41.26 350.99 40.98Q351.35 40.7 351.35 40.12L351.35 40.12L351.35 39.65Q351.35 39.08 350.99 38.79Q350.63 38.5 349.99 38.5L349.99 38.5L348.26 38.5L348.26 41.26M360.9 46L359.9 46L359.9 42.71L357 37.62L358.16 37.62L359.36 39.81L360.38 41.72L360.42 41.72L361.47 39.81L362.67 37.62L363.8 37.62L360.9 42.71L360.9 46M374.3 38.5L371.5 38.5L371.5 46L370.5 46L370.5 38.5L367.7 38.5L367.7 37.62L374.3 37.62L374.3 38.5M384.24 46L379.08 46L379.08 37.62L384.24 37.62L384.24 38.5L380.09 38.5L380.09 41.32L384.1 41.32L384.1 42.2L380.09 42.2L380.09 45.12L384.24 45.12L384.24 46M392.18 46.14L392.18 46.14Q391.05 46.14 390.33 45.73Q389.61 45.32 389.14 44.67L389.14 44.67L389.87 44.07Q390.36 44.68 390.91 44.98Q391.46 45.28 392.21 45.28L392.21 45.28Q393.12 45.28 393.6 44.86Q394.08 44.44 394.08 43.68L394.08 43.68Q394.08 43.07 393.74 42.73Q393.39 42.39 392.52 42.24L392.52 42.24L391.59 42.09Q390.98 41.98 390.56 41.76Q390.15 41.55 389.9 41.24Q389.64 40.94 389.54 40.57Q389.43 40.2 389.43 39.81L389.43 39.81Q389.43 38.66 390.18 38.07Q390.94 37.48 392.22 37.48L392.22 37.48Q393.23 37.48 393.92 37.82Q394.61 38.15 395.03 38.76L395.03 38.76L394.32 39.38Q393.98 38.92 393.48 38.63Q392.99 38.34 392.21 38.34L392.21 38.34Q391.36 38.34 390.9 38.7Q390.45 39.06 390.45 39.78L390.45 39.78Q390.45 40.35 390.79 40.7Q391.13 41.06 392.02 41.21L392.02 41.21L392.92 41.37Q393.53 41.48 393.95 41.69Q394.37 41.91 394.63 42.21Q394.89 42.51 395 42.88Q395.1 43.25 395.1 43.66L395.1 43.66Q395.1 44.82 394.34 45.48Q393.58 46.14 392.18 46.14M416.64 46L415.57 46L414.86 43.61L411.92 43.61L411.22 46L410.17 46L412.74 37.62L414.07 37.62L416.64 46M414.62 42.74L413.45 38.69L413.34 38.69L412.16 42.74L414.62 42.74M424.28 46.14L424.28 46.14Q422.74 46.14 421.99 45.03Q421.24 43.91 421.24 41.81L421.24 41.81Q421.24 39.71 421.99 38.6Q422.74 37.48 424.28 37.48L424.28 37.48Q424.85 37.48 425.27 37.64Q425.69 37.79 425.99 38.06Q426.29 38.32 426.5 38.65Q426.7 38.98 426.86 39.32L426.86 39.32L425.99 39.71Q425.88 39.44 425.74 39.19Q425.6 38.94 425.4 38.76Q425.2 38.57 424.93 38.46Q424.66 38.36 424.28 38.36L424.28 38.36Q423.28 38.36 422.79 39.11Q422.31 39.87 422.31 41.13L422.31 41.13L422.31 42.5Q422.31 43.76 422.79 44.51Q423.28 45.27 424.28 45.27L424.28 45.27Q424.66 45.27 424.93 45.16Q425.2 45.05 425.4 44.87Q425.6 44.68 425.74 44.43Q425.88 44.19 425.99 43.91L425.99 43.91L426.86 44.31Q426.7 44.66 426.5 44.98Q426.29 45.3 425.99 45.57Q425.69 45.83 425.27 45.99Q424.85 46.14 424.28 46.14M433.09 42.42L433.09 46L432.08 46L432.08 37.62L435.13 37.62Q436.29 37.62 436.9 38.26Q437.52 38.9 437.52 40.04L437.52 40.04Q437.52 41.06 436.99 41.67Q436.46 42.28 435.45 42.38L435.45 42.38L437.59 46L436.46 46L434.42 42.42L433.09 42.42M433.09 41.57L435.1 41.57Q435.74 41.57 436.09 41.25Q436.45 40.94 436.45 40.35L436.45 40.35L436.45 39.72Q436.45 39.14 436.09 38.82Q435.74 38.5 435.1 38.5L435.1 38.5L433.09 38.5L433.09 41.57M445.2 46.14L445.2 46.14Q444.43 46.14 443.88 45.85Q443.33 45.56 442.97 45Q442.61 44.45 442.44 43.65Q442.27 42.84 442.27 41.81L442.27 41.81Q442.27 40.79 442.44 39.98Q442.61 39.17 442.97 38.62Q443.33 38.07 443.88 37.77Q444.43 37.48 445.2 37.48L445.2 37.48Q445.97 37.48 446.52 37.77Q447.07 38.07 447.43 38.62Q447.79 39.17 447.96 39.98Q448.13 40.79 448.13 41.81L448.13 41.81Q448.13 42.84 447.96 43.65Q447.79 44.45 447.43 45Q447.07 45.56 446.52 45.85Q445.97 46.14 445.2 46.14M445.2 45.27L445.2 45.27Q445.7 45.27 446.05 45.07Q446.4 44.87 446.63 44.51Q446.86 44.15 446.96 43.64Q447.06 43.13 447.06 42.5L447.06 42.5L447.06 41.13Q447.06 40.5 446.96 39.99Q446.86 39.47 446.63 39.11Q446.4 38.75 446.05 38.55Q445.7 38.36 445.2 38.36L445.2 38.36Q444.7 38.36 444.35 38.55Q444 38.75 443.77 39.11Q443.54 39.47 443.44 39.99Q443.34 40.5 443.34 41.13L443.34 41.13L443.34 42.5Q443.34 43.13 443.44 43.64Q443.54 44.15 443.77 44.51Q444 44.87 444.35 45.07Q444.7 45.27 445.2 45.27M455.78 46.14L455.78 46.14Q454.65 46.14 453.93 45.73Q453.21 45.32 452.74 44.67L452.74 44.67L453.47 44.07Q453.96 44.68 454.51 44.98Q455.06 45.28 455.81 45.28L455.81 45.28Q456.72 45.28 457.2 44.86Q457.68 44.44 457.68 43.68L457.68 43.68Q457.68 43.07 457.34 42.73Q456.99 42.39 456.12 42.24L456.12 42.24L455.19 42.09Q454.58 41.98 454.16 41.76Q453.75 41.55 453.5 41.24Q453.24 40.94 453.14 40.57Q453.03 40.2 453.03 39.81L453.03 39.81Q453.03 38.66 453.78 38.07Q454.54 37.48 455.82 37.48L455.82 37.48Q456.83 37.48 457.52 37.82Q458.21 38.15 458.63 38.76L458.63 38.76L457.92 39.38Q457.58 38.92 457.08 38.63Q456.59 38.34 455.81 38.34L455.81 38.34Q454.96 38.34 454.5 38.7Q454.05 39.06 454.05 39.78L454.05 39.78Q454.05 40.35 454.39 40.7Q454.73 41.06 455.62 41.21L455.62 41.21L456.52 41.37Q457.13 41.48 457.55 41.69Q457.97 41.91 458.23 42.21Q458.49 42.51 458.6 42.88Q458.7 43.25 458.7 43.66L458.7 43.66Q458.7 44.82 457.94 45.48Q457.18 46.14 455.78 46.14M466.38 46.14L466.38 46.14Q465.25 46.14 464.53 45.73Q463.81 45.32 463.34 44.67L463.34 44.67L464.07 44.07Q464.56 44.68 465.11 44.98Q465.66 45.28 466.41 45.28L466.41 45.28Q467.32 45.28 467.8 44.86Q468.28 44.44 468.28 43.68L468.28 43.68Q468.28 43.07 467.94 42.73Q467.59 42.39 466.72 42.24L466.72 42.24L465.79 42.09Q465.18 41.98 464.76 41.76Q464.35 41.55 464.1 41.24Q463.84 40.94 463.74 40.57Q463.63 40.2 463.63 39.81L463.63 39.81Q463.63 38.66 464.38 38.07Q465.14 37.48 466.42 37.48L466.42 37.48Q467.43 37.48 468.12 37.82Q468.81 38.15 469.23 38.76L469.23 38.76L468.52 39.38Q468.18 38.92 467.68 38.63Q467.19 38.34 466.41 38.34L466.41 38.34Q465.56 38.34 465.1 38.7Q464.65 39.06 464.65 39.78L464.65 39.78Q464.65 40.35 464.99 40.7Q465.33 41.06 466.22 41.21L466.22 41.21L467.12 41.37Q467.73 41.48 468.15 41.69Q468.57 41.91 468.83 42.21Q469.09 42.51 469.2 42.88Q469.3 43.25 469.3 43.66L469.3 43.66Q469.3 44.82 468.54 45.48Q467.78 46.14 466.38 46.14M490.44 45.12L490.44 46L484.85 46L484.85 44.97L487.65 42.45Q488.26 41.9 488.66 41.31Q489.05 40.73 489.05 40.08L489.05 40.08L489.05 39.94Q489.05 39.18 488.66 38.77Q488.26 38.36 487.48 38.36L487.48 38.36Q486.71 38.36 486.3 38.75Q485.88 39.14 485.68 39.78L485.68 39.78L484.78 39.45Q484.9 39.08 485.11 38.72Q485.32 38.37 485.64 38.09Q485.97 37.82 486.43 37.65Q486.89 37.48 487.5 37.48L487.5 37.48Q488.13 37.48 488.61 37.66Q489.1 37.84 489.43 38.16Q489.76 38.49 489.93 38.93Q490.11 39.38 490.11 39.9L490.11 39.9Q490.11 40.38 489.97 40.8Q489.83 41.22 489.59 41.61Q489.34 41.99 489 42.36Q488.66 42.72 488.24 43.08L488.24 43.08L485.9 45.12L490.44 45.12M500.61 37.62L500.61 38.5L496.87 38.5L496.63 41.7L496.71 41.7Q497.02 41.28 497.41 41.04Q497.79 40.79 498.46 40.79L498.46 40.79Q499.02 40.79 499.48 40.97Q499.94 41.14 500.28 41.48Q500.61 41.81 500.8 42.29Q501 42.76 501 43.37L501 43.37Q501 43.98 500.8 44.49Q500.61 45 500.24 45.37Q499.87 45.74 499.34 45.94Q498.81 46.14 498.14 46.14L498.14 46.14Q497.61 46.14 497.2 46.02Q496.78 45.9 496.47 45.7Q496.15 45.5 495.91 45.24Q495.67 44.99 495.48 44.72L495.48 44.72L496.23 44.14Q496.4 44.39 496.57 44.6Q496.75 44.8 496.98 44.95Q497.2 45.1 497.49 45.18Q497.78 45.27 498.16 45.27L498.16 45.27Q499.03 45.27 499.49 44.8Q499.95 44.33 499.95 43.5L499.95 43.5L499.95 43.41Q499.95 42.58 499.48 42.11Q499.02 41.64 498.14 41.64L498.14 41.64Q497.54 41.64 497.21 41.85Q496.88 42.05 496.6 42.35L496.6 42.35L495.75 42.23L496.05 37.62L500.61 37.62M517.89 42.42L517.89 46L516.88 46L516.88 37.62L519.93 37.62Q521.09 37.62 521.7 38.26Q522.32 38.9 522.32 40.04L522.32 40.04Q522.32 41.06 521.79 41.67Q521.26 42.28 520.25 42.38L520.25 42.38L522.39 46L521.26 46L519.22 42.42L517.89 42.42M517.89 41.57L519.9 41.57Q520.54 41.57 520.89 41.25Q521.25 40.94 521.25 40.35L521.25 40.35L521.25 39.72Q521.25 39.14 520.89 38.82Q520.54 38.5 519.9 38.5L519.9 38.5L517.89 38.5L517.89 41.57M532.64 46L527.48 46L527.48 37.62L532.64 37.62L532.64 38.5L528.49 38.5L528.49 41.32L532.5 41.32L532.5 42.2L528.49 42.2L528.49 45.12L532.64 45.12L532.64 46M539.09 46L538.08 46L538.08 37.62L541.13 37.62Q542.29 37.62 542.9 38.26Q543.52 38.9 543.52 40.04L543.52 40.04Q543.52 41.18 542.9 41.81Q542.29 42.45 541.13 42.45L541.13 42.45L539.09 42.45L539.09 46M539.09 38.5L539.09 41.57L541.1 41.57Q541.74 41.57 542.09 41.25Q542.45 40.94 542.45 40.35L542.45 40.35L542.45 39.72Q542.45 39.14 542.09 38.82Q541.74 38.5 541.1 38.5L541.1 38.5L539.09 38.5M551.2 46.14L551.2 46.14Q550.43 46.14 549.88 45.85Q549.33 45.56 548.97 45Q548.61 44.45 548.44 43.65Q548.27 42.84 548.27 41.81L548.27 41.81Q548.27 40.79 548.44 39.98Q548.61 39.17 548.97 38.62Q549.33 38.07 549.88 37.77Q550.43 37.48 551.2 37.48L551.2 37.48Q551.97 37.48 552.52 37.77Q553.07 38.07 553.43 38.62Q553.79 39.17 553.96 39.98Q554.13 40.79 554.13 41.81L554.13 41.81Q554.13 42.84 553.96 43.65Q553.79 44.45 553.43 45Q553.07 45.56 552.52 45.85Q551.97 46.14 551.2 46.14M551.2 45.27L551.2 45.27Q551.7 45.27 552.05 45.07Q552.4 44.87 552.63 44.51Q552.86 44.15 552.96 43.64Q553.06 43.13 553.06 42.5L553.06 42.5L553.06 41.13Q553.06 40.5 552.96 39.99Q552.86 39.47 552.63 39.11Q552.4 38.75 552.05 38.55Q551.7 38.36 551.2 38.36L551.2 38.36Q550.7 38.36 550.35 38.55Q550 38.75 549.77 39.11Q549.54 39.47 549.44 39.99Q549.34 40.5 549.34 41.13L549.34 41.13L549.34 42.5Q549.34 43.13 549.44 43.64Q549.54 44.15 549.77 44.51Q550 44.87 550.35 45.07Q550.7 45.27 551.2 45.27M561.78 46.14L561.78 46.14Q560.65 46.14 559.93 45.73Q559.21 45.32 558.74 44.67L558.74 44.67L559.47 44.07Q559.96 44.68 560.51 44.98Q561.06 45.28 561.81 45.28L561.81 45.28Q562.72 45.28 563.2 44.86Q563.68 44.44 563.68 43.68L563.68 43.68Q563.68 43.07 563.34 42.73Q562.99 42.39 562.12 42.24L562.12 42.24L561.19 42.09Q560.58 41.98 560.16 41.76Q559.75 41.55 559.5 41.24Q559.24 40.94 559.14 40.57Q559.03 40.2 559.03 39.81L559.03 39.81Q559.03 38.66 559.78 38.07Q560.54 37.48 561.82 37.48L561.82 37.48Q562.83 37.48 563.52 37.82Q564.21 38.15 564.63 38.76L564.63 38.76L563.92 39.38Q563.58 38.92 563.08 38.63Q562.59 38.34 561.81 38.34L561.81 38.34Q560.96 38.34 560.5 38.7Q560.05 39.06 560.05 39.78L560.05 39.78Q560.05 40.35 560.39 40.7Q560.73 41.06 561.62 41.21L561.62 41.21L562.52 41.37Q563.13 41.48 563.55 41.69Q563.97 41.91 564.23 42.21Q564.49 42.51 564.6 42.88Q564.7 43.25 564.7 43.66L564.7 43.66Q564.7 44.82 563.94 45.48Q563.18 46.14 561.78 46.14M574.99 46L569.81 46L569.81 45.2L571.9 45.2L571.9 38.43L569.81 38.43L569.81 37.62L574.99 37.62L574.99 38.43L572.9 38.43L572.9 45.2L574.99 45.2L574.99 46M586.3 38.5L583.5 38.5L583.5 46L582.5 46L582.5 38.5L579.7 38.5L579.7 37.62L586.3 37.62L586.3 38.5M593.6 46.14L593.6 46.14Q592.83 46.14 592.28 45.85Q591.73 45.56 591.37 45Q591.01 44.45 590.84 43.65Q590.67 42.84 590.67 41.81L590.67 41.81Q590.67 40.79 590.84 39.98Q591.01 39.17 591.37 38.62Q591.73 38.07 592.28 37.77Q592.83 37.48 593.6 37.48L593.6 37.48Q594.37 37.48 594.92 37.77Q595.47 38.07 595.83 38.62Q596.19 39.17 596.36 39.98Q596.53 40.79 596.53 41.81L596.53 41.81Q596.53 42.84 596.36 43.65Q596.19 44.45 595.83 45Q595.47 45.56 594.92 45.85Q594.37 46.14 593.6 46.14M593.6 45.27L593.6 45.27Q594.1 45.27 594.45 45.07Q594.8 44.87 595.03 44.51Q595.26 44.15 595.36 43.64Q595.46 43.13 595.46 42.5L595.46 42.5L595.46 41.13Q595.46 40.5 595.36 39.99Q595.26 39.47 595.03 39.11Q594.8 38.75 594.45 38.55Q594.1 38.36 593.6 38.36L593.6 38.36Q593.1 38.36 592.75 38.55Q592.4 38.75 592.17 39.11Q591.94 39.47 591.84 39.99Q591.74 40.5 591.74 41.13L591.74 41.13L591.74 42.5Q591.74 43.13 591.84 43.64Q591.94 44.15 592.17 44.51Q592.4 44.87 592.75 45.07Q593.1 45.27 593.6 45.27M602.69 42.42L602.69 46L601.68 46L601.68 37.62L604.73 37.62Q605.89 37.62 606.5 38.26Q607.12 38.9 607.12 40.04L607.12 40.04Q607.12 41.06 606.59 41.67Q606.06 42.28 605.05 42.38L605.05 42.38L607.19 46L606.06 46L604.02 42.42L602.69 42.42M602.69 41.57L604.7 41.57Q605.34 41.57 605.69 41.25Q606.05 40.94 606.05 40.35L606.05 40.35L606.05 39.72Q606.05 39.14 605.69 38.82Q605.34 38.5 604.7 38.5L604.7 38.5L602.69 38.5L602.69 41.57M617.39 46L612.21 46L612.21 45.2L614.3 45.2L614.3 38.43L612.21 38.43L612.21 37.62L617.39 37.62L617.39 38.43L615.3 38.43L615.3 45.2L617.39 45.2L617.39 46M628.04 46L622.88 46L622.88 37.62L628.04 37.62L628.04 38.5L623.89 38.5L623.89 41.32L627.9 41.32L627.9 42.2L623.89 42.2L623.89 45.12L628.04 45.12L628.04 46M635.98 46.14L635.98 46.14Q634.85 46.14 634.13 45.73Q633.41 45.32 632.94 44.67L632.94 44.67L633.67 44.07Q634.16 44.68 634.71 44.98Q635.26 45.28 636.01 45.28L636.01 45.28Q636.92 45.28 637.4 44.86Q637.88 44.44 637.88 43.68L637.88 43.68Q637.88 43.07 637.54 42.73Q637.19 42.39 636.32 42.24L636.32 42.24L635.39 42.09Q634.78 41.98 634.36 41.76Q633.95 41.55 633.7 41.24Q633.44 40.94 633.34 40.57Q633.23 40.2 633.23 39.81L633.23 39.81Q633.23 38.66 633.98 38.07Q634.74 37.48 636.02 37.48L636.02 37.48Q637.03 37.48 637.72 37.82Q638.41 38.15 638.83 38.76L638.83 38.76L638.12 39.38Q637.78 38.92 637.28 38.63Q636.79 38.34 636.01 38.34L636.01 38.34Q635.16 38.34 634.7 38.7Q634.25 39.06 634.25 39.78L634.25 39.78Q634.25 40.35 634.59 40.7Q634.93 41.06 635.82 41.21L635.82 41.21L636.72 41.37Q637.33 41.48 637.75 41.69Q638.17 41.91 638.43 42.21Q638.69 42.51 638.8 42.88Q638.9 43.25 638.9 43.66L638.9 43.66Q638.9 44.82 638.14 45.48Q637.38 46.14 635.98 46.14" fill="#9A9A9F"/>
  <path d="M930.54 46L929.7 46L929.7 39.02L934.1 39.02L934.1 39.75L930.54 39.75L930.54 42.1L933.8 42.1L933.8 42.83L930.54 42.83L930.54 46M941.56 46L937.24 46L937.24 45.33L938.98 45.33L938.98 39.69L937.24 39.69L937.24 39.02L941.56 39.02L941.56 39.69L939.82 39.69L939.82 45.33L941.56 45.33L941.56 46M949.35 46L945.2 46L945.2 39.02L946.04 39.02L946.04 45.27L949.35 45.27L949.35 46M956.95 46L952.8 46L952.8 39.02L953.64 39.02L953.64 45.27L956.95 45.27L956.95 46M968.54 46L967.7 46L967.7 39.02L970.24 39.02Q971.21 39.02 971.72 39.55Q972.23 40.08 972.23 41.03L972.23 41.03Q972.23 41.98 971.72 42.51Q971.21 43.04 970.24 43.04L970.24 43.04L968.54 43.04L968.54 46M968.54 39.75L968.54 42.31L970.22 42.31Q970.75 42.31 971.05 42.05Q971.34 41.78 971.34 41.29L971.34 41.29L971.34 40.77Q971.34 40.28 971.05 40.02Q970.75 39.75 970.22 39.75L970.22 39.75L968.54 39.75M980.1 46L979.21 46L978.62 44.01L976.17 44.01L975.58 46L974.71 46L976.85 39.02L977.96 39.02L980.1 46M978.42 43.28L977.44 39.91L977.35 39.91L976.37 43.28L978.42 43.28M987.75 39.75L985.42 39.75L985.42 46L984.58 46L984.58 39.75L982.25 39.75L982.25 39.02L987.75 39.02L987.75 39.75M995.35 39.75L993.02 39.75L993.02 46L992.18 46L992.18 39.75L989.85 39.75L989.85 39.02L995.35 39.02L995.35 39.75M1002.4 46L998.1 46L998.1 39.02L1002.4 39.02L1002.4 39.75L998.94 39.75L998.94 42.1L1002.28 42.1L1002.28 42.83L998.94 42.83L998.94 45.27L1002.4 45.27L1002.4 46M1006.54 43.02L1006.54 46L1005.7 46L1005.7 39.02L1008.24 39.02Q1009.21 39.02 1009.72 39.55Q1010.23 40.08 1010.23 41.03L1010.23 41.03Q1010.23 41.88 1009.79 42.39Q1009.35 42.9 1008.51 42.98L1008.51 42.98L1010.29 46L1009.35 46L1007.65 43.02L1006.54 43.02M1006.54 42.31L1008.22 42.31Q1008.75 42.31 1009.05 42.05Q1009.34 41.78 1009.34 41.29L1009.34 41.29L1009.34 40.77Q1009.34 40.28 1009.05 40.02Q1008.75 39.75 1008.22 39.75L1008.22 39.75L1006.54 39.75L1006.54 42.31M1016.41 46L1014.03 40.12L1013.96 40.12L1013.96 46L1013.2 46L1013.2 39.02L1014.39 39.02L1016.77 44.9L1016.84 44.9L1016.84 39.02L1017.6 39.02L1017.6 46L1016.41 46M1029.34 43.02L1029.34 46L1028.5 46L1028.5 39.02L1031.04 39.02Q1032.01 39.02 1032.52 39.55Q1033.03 40.08 1033.03 41.03L1033.03 41.03Q1033.03 41.88 1032.59 42.39Q1032.15 42.9 1031.31 42.98L1031.31 42.98L1033.09 46L1032.15 46L1030.45 43.02L1029.34 43.02M1029.34 42.31L1031.02 42.31Q1031.55 42.31 1031.85 42.05Q1032.14 41.78 1032.14 41.29L1032.14 41.29L1032.14 40.77Q1032.14 40.28 1031.85 40.02Q1031.55 39.75 1031.02 39.75L1031.02 39.75L1029.34 39.75L1029.34 42.31M1040.4 46L1036.1 46L1036.1 39.02L1040.4 39.02L1040.4 39.75L1036.94 39.75L1036.94 42.1L1040.28 42.1L1040.28 42.83L1036.94 42.83L1036.94 45.27L1040.4 45.27L1040.4 46M1044.54 46L1043.7 46L1043.7 39.02L1046.24 39.02Q1047.21 39.02 1047.72 39.55Q1048.23 40.08 1048.23 41.03L1048.23 41.03Q1048.23 41.98 1047.72 42.51Q1047.21 43.04 1046.24 43.04L1046.24 43.04L1044.54 43.04L1044.54 46M1044.54 39.75L1044.54 42.31L1046.22 42.31Q1046.75 42.31 1047.05 42.05Q1047.34 41.78 1047.34 41.29L1047.34 41.29L1047.34 40.77Q1047.34 40.28 1047.05 40.02Q1046.75 39.75 1046.22 39.75L1046.22 39.75L1044.54 39.75M1055.75 46L1051.6 46L1051.6 39.02L1052.44 39.02L1052.44 45.27L1055.75 45.27L1055.75 46M1063.7 46L1062.81 46L1062.22 44.01L1059.77 44.01L1059.18 46L1058.31 46L1060.45 39.02L1061.56 39.02L1063.7 46M1062.02 43.28L1061.04 39.91L1060.95 39.91L1059.97 43.28L1062.02 43.28M1068.83 46.12L1068.83 46.12Q1067.55 46.12 1066.92 45.19Q1066.3 44.26 1066.3 42.51L1066.3 42.51Q1066.3 40.76 1066.92 39.83Q1067.55 38.9 1068.83 38.9L1068.83 38.9Q1069.31 38.9 1069.66 39.03Q1070.01 39.16 1070.26 39.38Q1070.51 39.6 1070.68 39.88Q1070.85 40.15 1070.98 40.43L1070.98 40.43L1070.26 40.76Q1070.17 40.53 1070.05 40.33Q1069.93 40.12 1069.76 39.97Q1069.6 39.81 1069.38 39.72Q1069.15 39.63 1068.83 39.63L1068.83 39.63Q1068 39.63 1067.59 40.26Q1067.19 40.89 1067.19 41.94L1067.19 41.94L1067.19 43.08Q1067.19 44.13 1067.59 44.76Q1068 45.39 1068.83 45.39L1068.83 45.39Q1069.15 45.39 1069.38 45.3Q1069.6 45.21 1069.76 45.05Q1069.93 44.9 1070.05 44.7Q1070.17 44.49 1070.26 44.26L1070.26 44.26L1070.98 44.59Q1070.85 44.88 1070.68 45.15Q1070.51 45.42 1070.26 45.64Q1070.01 45.86 1069.66 45.99Q1069.31 46.12 1068.83 46.12M1078.4 46L1074.1 46L1074.1 39.02L1078.4 39.02L1078.4 39.75L1074.94 39.75L1074.94 42.1L1078.28 42.1L1078.28 42.83L1074.94 42.83L1074.94 45.27L1078.4 45.27L1078.4 46M1083.78 46.12L1083.78 46.12Q1082.84 46.12 1082.24 45.77Q1081.64 45.43 1081.25 44.89L1081.25 44.89L1081.86 44.39Q1082.27 44.9 1082.72 45.15Q1083.18 45.4 1083.81 45.4L1083.81 45.4Q1084.57 45.4 1084.97 45.05Q1085.37 44.7 1085.37 44.07L1085.37 44.07Q1085.37 43.56 1085.08 43.27Q1084.79 42.99 1084.07 42.87L1084.07 42.87L1083.29 42.74Q1082.78 42.65 1082.43 42.47Q1082.09 42.29 1081.88 42.03Q1081.67 41.78 1081.58 41.48Q1081.49 41.17 1081.49 40.84L1081.49 40.84Q1081.49 39.88 1082.12 39.39Q1082.75 38.9 1083.82 38.9L1083.82 38.9Q1084.66 38.9 1085.23 39.18Q1085.81 39.46 1086.16 39.97L1086.16 39.97L1085.57 40.48Q1085.28 40.1 1084.87 39.86Q1084.46 39.62 1083.81 39.62L1083.81 39.62Q1083.1 39.62 1082.72 39.92Q1082.34 40.22 1082.34 40.82L1082.34 40.82Q1082.34 41.29 1082.62 41.59Q1082.91 41.88 1083.65 42.01L1083.65 42.01L1084.4 42.14Q1084.91 42.23 1085.26 42.41Q1085.61 42.59 1085.82 42.84Q1086.04 43.09 1086.13 43.4Q1086.22 43.71 1086.22 44.05L1086.22 44.05Q1086.22 45.02 1085.58 45.57Q1084.95 46.12 1083.78 46.12M1099.23 46.12L1099.23 46.12Q1097.95 46.12 1097.32 45.19Q1096.7 44.26 1096.7 42.51L1096.7 42.51Q1096.7 40.76 1097.32 39.83Q1097.95 38.9 1099.23 38.9L1099.23 38.9Q1099.71 38.9 1100.06 39.03Q1100.41 39.16 1100.66 39.38Q1100.91 39.6 1101.08 39.88Q1101.25 40.15 1101.38 40.43L1101.38 40.43L1100.66 40.76Q1100.57 40.53 1100.45 40.33Q1100.33 40.12 1100.16 39.97Q1100 39.81 1099.77 39.72Q1099.55 39.63 1099.23 39.63L1099.23 39.63Q1098.4 39.63 1097.99 40.26Q1097.59 40.89 1097.59 41.94L1097.59 41.94L1097.59 43.08Q1097.59 44.13 1097.99 44.76Q1098.4 45.39 1099.23 45.39L1099.23 45.39Q1099.55 45.39 1099.77 45.3Q1100 45.21 1100.16 45.05Q1100.33 44.9 1100.45 44.7Q1100.57 44.49 1100.66 44.26L1100.66 44.26L1101.38 44.59Q1101.25 44.88 1101.08 45.15Q1100.91 45.42 1100.66 45.64Q1100.41 45.86 1100.06 45.99Q1099.71 46.12 1099.23 46.12M1106.6 46.12L1106.6 46.12Q1105.96 46.12 1105.5 45.88Q1105.04 45.63 1104.74 45.17Q1104.44 44.71 1104.3 44.04Q1104.16 43.37 1104.16 42.51L1104.16 42.51Q1104.16 41.66 1104.3 40.98Q1104.44 40.31 1104.74 39.85Q1105.04 39.39 1105.5 39.14Q1105.96 38.9 1106.6 38.9L1106.6 38.9Q1107.24 38.9 1107.7 39.14Q1108.16 39.39 1108.46 39.85Q1108.76 40.31 1108.9 40.98Q1109.04 41.66 1109.04 42.51L1109.04 42.51Q1109.04 43.37 1108.9 44.04Q1108.76 44.71 1108.46 45.17Q1108.16 45.63 1107.7 45.88Q1107.24 46.12 1106.6 46.12M1106.6 45.39L1106.6 45.39Q1107.02 45.39 1107.31 45.23Q1107.6 45.06 1107.79 44.76Q1107.98 44.46 1108.06 44.03Q1108.15 43.61 1108.15 43.08L1108.15 43.08L1108.15 41.94Q1108.15 41.42 1108.06 40.99Q1107.98 40.56 1107.79 40.26Q1107.6 39.96 1107.31 39.8Q1107.02 39.63 1106.6 39.63L1106.6 39.63Q1106.18 39.63 1105.89 39.8Q1105.6 39.96 1105.41 40.26Q1105.22 40.56 1105.13 40.99Q1105.05 41.42 1105.05 41.94L1105.05 41.94L1105.05 43.08Q1105.05 43.61 1105.13 44.03Q1105.22 44.46 1105.41 44.76Q1105.6 45.06 1105.89 45.23Q1106.18 45.39 1106.6 45.39M1116.55 46L1112.4 46L1112.4 39.02L1113.24 39.02L1113.24 45.27L1116.55 45.27L1116.55 46M1121.8 46.12L1121.8 46.12Q1121.16 46.12 1120.7 45.88Q1120.24 45.63 1119.94 45.17Q1119.64 44.71 1119.5 44.04Q1119.36 43.37 1119.36 42.51L1119.36 42.51Q1119.36 41.66 1119.5 40.98Q1119.64 40.31 1119.94 39.85Q1120.24 39.39 1120.7 39.14Q1121.16 38.9 1121.8 38.9L1121.8 38.9Q1122.44 38.9 1122.9 39.14Q1123.36 39.39 1123.66 39.85Q1123.96 40.31 1124.1 40.98Q1124.24 41.66 1124.24 42.51L1124.24 42.51Q1124.24 43.37 1124.1 44.04Q1123.96 44.71 1123.66 45.17Q1123.36 45.63 1122.9 45.88Q1122.44 46.12 1121.8 46.12M1121.8 45.39L1121.8 45.39Q1122.22 45.39 1122.51 45.23Q1122.8 45.06 1122.99 44.76Q1123.18 44.46 1123.26 44.03Q1123.35 43.61 1123.35 43.08L1123.35 43.08L1123.35 41.94Q1123.35 41.42 1123.26 40.99Q1123.18 40.56 1122.99 40.26Q1122.8 39.96 1122.51 39.8Q1122.22 39.63 1121.8 39.63L1121.8 39.63Q1121.38 39.63 1121.09 39.8Q1120.8 39.96 1120.61 40.26Q1120.42 40.56 1120.33 40.99Q1120.25 41.42 1120.25 41.94L1120.25 41.94L1120.25 43.08Q1120.25 43.61 1120.33 44.03Q1120.42 44.46 1120.61 44.76Q1120.8 45.06 1121.09 45.23Q1121.38 45.39 1121.8 45.39M1127.2 39.02L1128.04 39.02L1128.04 43.21Q1128.04 43.72 1128.07 44.12Q1128.1 44.52 1128.23 44.8Q1128.36 45.09 1128.63 45.24Q1128.91 45.39 1129.4 45.39L1129.4 45.39Q1129.89 45.39 1130.16 45.24Q1130.44 45.09 1130.57 44.8Q1130.7 44.52 1130.73 44.12Q1130.76 43.72 1130.76 43.21L1130.76 43.21L1130.76 39.02L1131.6 39.02L1131.6 43.01Q1131.6 43.79 1131.52 44.37Q1131.45 44.95 1131.21 45.34Q1130.98 45.73 1130.54 45.92Q1130.11 46.12 1129.4 46.12L1129.4 46.12Q1128.69 46.12 1128.25 45.92Q1127.82 45.73 1127.58 45.34Q1127.35 44.95 1127.27 44.37Q1127.2 43.79 1127.2 43.01L1127.2 43.01L1127.2 39.02M1135.74 43.02L1135.74 46L1134.9 46L1134.9 39.02L1137.44 39.02Q1138.41 39.02 1138.92 39.55Q1139.43 40.08 1139.43 41.03L1139.43 41.03Q1139.43 41.88 1138.99 42.39Q1138.55 42.9 1137.71 42.98L1137.71 42.98L1139.49 46L1138.55 46L1136.85 43.02L1135.74 43.02M1135.74 42.31L1137.42 42.31Q1137.95 42.31 1138.24 42.05Q1138.54 41.78 1138.54 41.29L1138.54 41.29L1138.54 40.77Q1138.54 40.28 1138.24 40.02Q1137.95 39.75 1137.42 39.75L1137.42 39.75L1135.74 39.75L1135.74 42.31" fill="#55555A"/>
  <rect x="60" y="76" width="644.4" height="58" fill="url(#lang-solid)"/><rect x="706.4" y="76" width="148.73" height="58" fill="url(#lang-checker)"/><rect x="857.13" y="76" width="139.49" height="58" fill="url(#lang-hatch)"/><rect x="998.62" y="76" width="107.36" height="58" fill="url(#lang-rules)"/><rect x="1107.98" y="76" width="22.21" height="58" fill="url(#lang-columns)"/><rect x="1132.19" y="76" width="7.81" height="58" fill="url(#lang-grain)"/>
  <rect x="60" y="166" width="14" height="14" fill="url(#lang-solid)"/><rect x="60" y="166" width="14" height="14" fill="none" stroke="#26262A"/><path d="M87.61 169.62L92.02 169.62L92.02 175.71Q92.02 176.27 91.83 176.72Q91.64 177.17 91.29 177.48Q90.93 177.8 90.43 177.97Q89.94 178.14 89.32 178.14L89.32 178.14Q88.14 178.14 87.46 177.54Q86.78 176.94 86.59 175.95L86.59 175.95L88.06 175.64Q88.17 176.16 88.45 176.51Q88.74 176.85 89.32 176.85L89.32 176.85Q89.86 176.85 90.15 176.53Q90.44 176.21 90.44 175.53L90.44 175.53L90.44 170.92L87.61 170.92L87.61 169.62M101.66 178L99.99 178L99.4 175.88L96.92 175.88L96.34 178L94.76 178L97.11 169.62L99.29 169.62L101.66 178M99.14 174.59L98.21 171.17L98.12 171.17L97.19 174.59L99.14 174.59M107.9 178L105.7 178L103.4 169.62L105.13 169.62L106.18 173.86L106.79 176.5L106.87 176.5L107.5 173.86L108.55 169.62L110.2 169.62L107.9 178M118.86 178L117.19 178L116.6 175.88L114.12 175.88L113.54 178L111.96 178L114.31 169.62L116.49 169.62L118.86 178M116.34 174.59L115.41 171.17L115.32 171.17L114.39 174.59L116.34 174.59M123.9 178.14L123.9 178.14Q122.82 178.14 122.06 177.77Q121.3 177.4 120.82 176.79L120.82 176.79L121.77 175.8Q122.24 176.34 122.78 176.6Q123.33 176.86 123.95 176.86L123.95 176.86Q124.67 176.86 125.06 176.54Q125.44 176.21 125.44 175.6L125.44 175.6Q125.44 175.1 125.15 174.84Q124.86 174.58 124.18 174.47L124.18 174.47L123.29 174.33Q122.13 174.12 121.64 173.48Q121.14 172.84 121.14 171.96L121.14 171.96Q121.14 170.76 121.92 170.12Q122.7 169.48 124.08 169.48L124.08 169.48Q125.07 169.48 125.78 169.79Q126.5 170.1 126.93 170.64L126.93 170.64L126 171.63Q125.67 171.23 125.2 171Q124.73 170.76 124.1 170.76L124.1 170.76Q122.73 170.76 122.73 171.89L122.73 171.89Q122.73 172.37 123.02 172.62Q123.3 172.88 124 173L124 173L124.88 173.15Q125.97 173.36 126.5 173.96Q127.02 174.56 127.02 175.49L127.02 175.49Q127.02 176.08 126.82 176.57Q126.62 177.05 126.22 177.41Q125.82 177.76 125.24 177.95Q124.66 178.14 123.9 178.14M132.82 178.14L132.82 178.14Q131.17 178.14 130.39 177.02Q129.6 175.89 129.6 173.81L129.6 173.81Q129.6 171.75 130.39 170.61Q131.17 169.48 132.82 169.48L132.82 169.48Q133.44 169.48 133.91 169.65Q134.39 169.82 134.74 170.11Q135.08 170.4 135.31 170.82Q135.54 171.23 135.67 171.72L135.67 171.72L134.23 172.13Q134.15 171.84 134.04 171.59Q133.93 171.34 133.77 171.15Q133.61 170.97 133.37 170.87Q133.13 170.76 132.79 170.76L132.79 170.76Q131.98 170.76 131.62 171.39Q131.27 172.01 131.27 173.09L131.27 173.09L131.27 174.53Q131.27 175.61 131.62 176.24Q131.98 176.86 132.79 176.86L132.79 176.86Q133.13 176.86 133.37 176.76Q133.61 176.66 133.77 176.47Q133.93 176.28 134.04 176.03Q134.15 175.78 134.23 175.49L134.23 175.49L135.67 175.9Q135.54 176.39 135.31 176.81Q135.08 177.22 134.74 177.51Q134.39 177.81 133.91 177.98Q133.44 178.14 132.82 178.14M140.13 174.75L140.13 178L138.56 178L138.56 169.62L141.74 169.62Q142.96 169.62 143.61 170.32Q144.26 171.02 144.26 172.22L144.26 172.22Q144.26 173.14 143.83 173.77Q143.41 174.4 142.62 174.57L142.62 174.57L144.4 178L142.68 178L141.08 174.75L140.13 174.75M140.13 173.52L141.42 173.52Q142.05 173.52 142.33 173.27Q142.6 173.01 142.6 172.44L142.6 172.44L142.6 171.99Q142.6 171.42 142.33 171.17Q142.05 170.91 141.42 170.91L141.42 170.91L140.13 170.91L140.13 173.52M152.46 178L147.14 178L147.14 176.82L149.02 176.82L149.02 170.8L147.14 170.8L147.14 169.62L152.46 169.62L152.46 170.8L150.58 170.8L150.58 176.82L152.46 176.82L152.46 178M157.33 178L155.76 178L155.76 169.62L158.94 169.62Q160.16 169.62 160.81 170.32Q161.46 171.02 161.46 172.22L161.46 172.22Q161.46 173.42 160.81 174.11Q160.16 174.81 158.94 174.81L158.94 174.81L157.33 174.81L157.33 178M157.33 170.91L157.33 173.52L158.62 173.52Q159.25 173.52 159.53 173.27Q159.8 173.01 159.8 172.44L159.8 172.44L159.8 171.99Q159.8 171.42 159.53 171.17Q159.25 170.91 158.62 170.91L158.62 170.91L157.33 170.91M170.3 170.92L167.78 170.92L167.78 178L166.22 178L166.22 170.92L163.7 170.92L163.7 169.62L170.3 169.62L170.3 170.92" fill="#F0F0EC"/><path d="M360.41 169.62L360.41 170.5L356.67 170.5L356.43 173.7L356.51 173.7Q356.82 173.28 357.21 173.04Q357.59 172.79 358.26 172.79L358.26 172.79Q358.82 172.79 359.28 172.97Q359.74 173.14 360.08 173.48Q360.41 173.81 360.6 174.29Q360.8 174.76 360.8 175.37L360.8 175.37Q360.8 175.98 360.6 176.49Q360.41 177 360.04 177.37Q359.67 177.74 359.14 177.94Q358.61 178.14 357.94 178.14L357.94 178.14Q357.41 178.14 357 178.02Q356.58 177.9 356.27 177.7Q355.95 177.5 355.71 177.24Q355.47 176.99 355.28 176.72L355.28 176.72L356.03 176.14Q356.2 176.39 356.37 176.6Q356.55 176.8 356.78 176.95Q357 177.1 357.29 177.18Q357.58 177.27 357.96 177.27L357.96 177.27Q358.83 177.27 359.29 176.8Q359.75 176.33 359.75 175.5L359.75 175.5L359.75 175.41Q359.75 174.58 359.28 174.11Q358.82 173.64 357.94 173.64L357.94 173.64Q357.34 173.64 357.01 173.85Q356.68 174.05 356.4 174.35L356.4 174.35L355.55 174.23L355.85 169.62L360.41 169.62M369.43 172.7L369.43 172.7Q369.43 173.63 369.15 174.45Q368.87 175.28 368.42 175.95Q367.98 176.63 367.45 177.15Q366.91 177.68 366.4 178L366.4 178L365.1 178Q365.78 177.51 366.32 177.04Q366.85 176.57 367.26 176.06Q367.67 175.55 367.94 174.97Q368.22 174.39 368.4 173.66L368.4 173.66L368.34 173.63Q368.03 174.15 367.54 174.49Q367.06 174.83 366.28 174.83L366.28 174.83Q365.72 174.83 365.26 174.65Q364.8 174.47 364.47 174.14Q364.14 173.8 363.95 173.33Q363.77 172.85 363.77 172.25L363.77 172.25Q363.77 171.64 363.97 171.13Q364.16 170.62 364.54 170.25Q364.91 169.89 365.43 169.68Q365.95 169.48 366.59 169.48L366.59 169.48Q367.25 169.48 367.78 169.7Q368.3 169.92 368.67 170.34Q369.04 170.75 369.23 171.35Q369.43 171.95 369.43 172.7M366.6 174L366.6 174Q367.46 174 367.94 173.54Q368.41 173.07 368.41 172.22L368.41 172.22L368.41 172.12Q368.41 171.27 367.94 170.8Q367.46 170.33 366.6 170.33L366.6 170.33Q365.74 170.33 365.26 170.8Q364.79 171.27 364.79 172.12L364.79 172.12L364.79 172.22Q364.79 173.07 365.26 173.54Q365.74 174 366.6 174M375.2 178.11L375.2 178.11Q374.71 178.11 374.51 177.9Q374.31 177.7 374.31 177.39L374.31 177.39L374.31 177.17Q374.31 176.86 374.51 176.66Q374.71 176.45 375.2 176.45L375.2 176.45Q375.69 176.45 375.89 176.66Q376.09 176.86 376.09 177.17L376.09 177.17L376.09 177.39Q376.09 177.7 375.89 177.9Q375.69 178.11 375.2 178.11M386.63 172.7L386.63 172.7Q386.63 173.63 386.35 174.45Q386.07 175.28 385.62 175.95Q385.18 176.63 384.65 177.15Q384.11 177.68 383.6 178L383.6 178L382.3 178Q382.98 177.51 383.52 177.04Q384.05 176.57 384.46 176.06Q384.87 175.55 385.14 174.97Q385.42 174.39 385.6 173.66L385.6 173.66L385.54 173.63Q385.23 174.15 384.74 174.49Q384.26 174.83 383.48 174.83L383.48 174.83Q382.92 174.83 382.46 174.65Q382 174.47 381.67 174.14Q381.34 173.8 381.15 173.33Q380.97 172.85 380.97 172.25L380.97 172.25Q380.97 171.64 381.17 171.13Q381.36 170.62 381.74 170.25Q382.11 169.89 382.63 169.68Q383.15 169.48 383.79 169.48L383.79 169.48Q384.45 169.48 384.98 169.7Q385.5 169.92 385.87 170.34Q386.24 170.75 386.43 171.35Q386.63 171.95 386.63 172.7M383.8 174L383.8 174Q384.66 174 385.14 173.54Q385.61 173.07 385.61 172.22L385.61 172.22L385.61 172.12Q385.61 171.27 385.14 170.8Q384.66 170.33 383.8 170.33L383.8 170.33Q382.94 170.33 382.46 170.8Q381.99 171.27 381.99 172.12L381.99 172.12L381.99 172.22Q381.99 173.07 382.46 173.54Q382.94 174 383.8 174M390.83 173.73L390.83 173.73Q390.04 173.73 389.54 173.19Q389.04 172.66 389.04 171.6L389.04 171.6Q389.04 170.55 389.54 170.01Q390.04 169.48 390.83 169.48L390.83 169.48Q391.62 169.48 392.12 170.01Q392.62 170.55 392.62 171.6L392.62 171.6Q392.62 172.66 392.12 173.19Q391.62 173.73 390.83 173.73M390.83 173.08L390.83 173.08Q391.26 173.08 391.53 172.78Q391.8 172.48 391.8 171.9L391.8 171.9L391.8 171.3Q391.8 170.73 391.53 170.43Q391.26 170.13 390.83 170.13L390.83 170.13Q390.4 170.13 390.13 170.43Q389.86 170.73 389.86 171.3L389.86 171.3L389.86 171.9Q389.86 172.48 390.13 172.78Q390.4 173.08 390.83 173.08M393 173.22L394.92 169.62L395.78 169.62L393.86 173.22L393 173.22M389.02 178L390.94 174.4L391.8 174.4L389.88 178L389.02 178M393.97 178.14L393.97 178.14Q393.18 178.14 392.68 177.61Q392.18 177.08 392.18 176.02L392.18 176.02Q392.18 174.96 392.68 174.43Q393.18 173.9 393.97 173.9L393.97 173.9Q394.76 173.9 395.26 174.43Q395.76 174.96 395.76 176.02L395.76 176.02Q395.76 177.08 395.26 177.61Q394.76 178.14 393.97 178.14M393.97 177.5L393.97 177.5Q394.4 177.5 394.67 177.2Q394.94 176.9 394.94 176.32L394.94 176.32L394.94 175.72Q394.94 175.14 394.67 174.84Q394.4 174.54 393.97 174.54L393.97 174.54Q393.54 174.54 393.27 174.84Q393 175.14 393 175.72L393 175.72L393 176.32Q393 176.9 393.27 177.2Q393.54 177.5 393.97 177.5" fill="#9A9A9F"/>
  <rect x="420" y="166" width="14" height="14" fill="url(#lang-checker)"/><rect x="420" y="166" width="14" height="14" fill="none" stroke="#26262A"/><path d="M450.82 178L450.82 174.4L448.38 174.4L448.38 178L446.8 178L446.8 169.62L448.38 169.62L448.38 173.1L450.82 173.1L450.82 169.62L452.4 169.62L452.4 178L450.82 178M461.5 170.92L458.98 170.92L458.98 178L457.42 178L457.42 170.92L454.9 170.92L454.9 169.62L461.5 169.62L461.5 170.92M468.46 178L468.46 174.12L468.53 171.7L468.42 171.7L466.8 176.01L465.18 171.7L465.07 171.7L465.14 174.12L465.14 178L463.78 178L463.78 169.62L465.65 169.62L466.81 172.71L466.9 172.71L468.07 169.62L469.82 169.62L469.82 178L468.46 178M478.28 178L473 178L473 169.62L474.57 169.62L474.57 176.7L478.28 176.7L478.28 178" fill="#F0F0EC"/><path d="M721.04 178L715.42 178L715.42 177.12L717.82 177.12L717.82 170.37L717.74 170.37L715.62 172.34L715.04 171.7L717.26 169.62L718.83 169.62L718.83 177.12L721.04 177.12L721.04 178M728.5 178L727.54 178L727.54 176.36L723.41 176.36L723.41 175.47L727.03 169.62L728.5 169.62L728.5 175.53L729.74 175.53L729.74 176.36L728.5 176.36L728.5 178M727.49 170.4L724.31 175.53L727.54 175.53L727.54 170.4L727.49 170.4M735.2 178.11L735.2 178.11Q734.71 178.11 734.51 177.9Q734.31 177.7 734.31 177.39L734.31 177.39L734.31 177.17Q734.31 176.86 734.51 176.66Q734.71 176.45 735.2 176.45L735.2 176.45Q735.69 176.45 735.89 176.66Q736.09 176.86 736.09 177.17L736.09 177.17L736.09 177.39Q736.09 177.7 735.89 177.9Q735.69 178.11 735.2 178.11M743.8 178.14L743.8 178.14Q743.03 178.14 742.48 177.85Q741.93 177.56 741.57 177Q741.21 176.45 741.04 175.65Q740.87 174.84 740.87 173.81L740.87 173.81Q740.87 172.79 741.04 171.98Q741.21 171.17 741.57 170.62Q741.93 170.07 742.48 169.77Q743.03 169.48 743.8 169.48L743.8 169.48Q744.57 169.48 745.12 169.77Q745.67 170.07 746.03 170.62Q746.39 171.17 746.56 171.98Q746.73 172.79 746.73 173.81L746.73 173.81Q746.73 174.84 746.56 175.65Q746.39 176.45 746.03 177Q745.67 177.56 745.12 177.85Q744.57 178.14 743.8 178.14M743.8 177.27L743.8 177.27Q744.3 177.27 744.66 177.07Q745.02 176.87 745.25 176.51Q745.47 176.15 745.58 175.64Q745.68 175.13 745.68 174.5L745.68 174.5L745.68 173.13Q745.68 172.5 745.58 171.99Q745.47 171.47 745.25 171.11Q745.02 170.75 744.66 170.55Q744.3 170.36 743.8 170.36L743.8 170.36Q743.3 170.36 742.94 170.55Q742.58 170.75 742.35 171.11Q742.13 171.47 742.02 171.99Q741.92 172.5 741.92 173.13L741.92 173.13L741.92 174.5Q741.92 175.13 742.02 175.64Q742.13 176.15 742.35 176.51Q742.58 176.87 742.94 177.07Q743.3 177.27 743.8 177.27M743.8 174.52L743.8 174.52Q743.38 174.52 743.22 174.35Q743.06 174.18 743.06 173.94L743.06 173.94L743.06 173.68Q743.06 173.44 743.22 173.27Q743.38 173.1 743.8 173.1L743.8 173.1Q744.22 173.1 744.38 173.27Q744.54 173.44 744.54 173.68L744.54 173.68L744.54 173.94Q744.54 174.18 744.38 174.35Q744.22 174.52 743.8 174.52M750.83 173.73L750.83 173.73Q750.04 173.73 749.54 173.19Q749.04 172.66 749.04 171.6L749.04 171.6Q749.04 170.55 749.54 170.01Q750.04 169.48 750.83 169.48L750.83 169.48Q751.62 169.48 752.12 170.01Q752.62 170.55 752.62 171.6L752.62 171.6Q752.62 172.66 752.12 173.19Q751.62 173.73 750.83 173.73M750.83 173.08L750.83 173.08Q751.26 173.08 751.53 172.78Q751.8 172.48 751.8 171.9L751.8 171.9L751.8 171.3Q751.8 170.73 751.53 170.43Q751.26 170.13 750.83 170.13L750.83 170.13Q750.4 170.13 750.13 170.43Q749.86 170.73 749.86 171.3L749.86 171.3L749.86 171.9Q749.86 172.48 750.13 172.78Q750.4 173.08 750.83 173.08M753 173.22L754.92 169.62L755.78 169.62L753.86 173.22L753 173.22M749.02 178L750.94 174.4L751.8 174.4L749.88 178L749.02 178M753.97 178.14L753.97 178.14Q753.18 178.14 752.68 177.61Q752.18 177.08 752.18 176.02L752.18 176.02Q752.18 174.96 752.68 174.43Q753.18 173.9 753.97 173.9L753.97 173.9Q754.76 173.9 755.26 174.43Q755.76 174.96 755.76 176.02L755.76 176.02Q755.76 177.08 755.26 177.61Q754.76 178.14 753.97 178.14M753.97 177.5L753.97 177.5Q754.4 177.5 754.67 177.2Q754.94 176.9 754.94 176.32L754.94 176.32L754.94 175.72Q754.94 175.14 754.67 174.84Q754.4 174.54 753.97 174.54L753.97 174.54Q753.54 174.54 753.27 174.84Q753 175.14 753 175.72L753 175.72L753 176.32Q753 176.9 753.27 177.2Q753.54 177.5 753.97 177.5" fill="#9A9A9F"/>
  <rect x="780" y="166" width="14" height="14" fill="url(#lang-hatch)"/><rect x="780" y="166" width="14" height="14" fill="none" stroke="#26262A"/><path d="M809.82 178.14L809.82 178.14Q808.17 178.14 807.39 177.02Q806.6 175.89 806.6 173.81L806.6 173.81Q806.6 171.75 807.39 170.61Q808.17 169.48 809.82 169.48L809.82 169.48Q810.44 169.48 810.91 169.65Q811.39 169.82 811.74 170.11Q812.08 170.4 812.31 170.82Q812.54 171.23 812.67 171.72L812.67 171.72L811.23 172.13Q811.15 171.84 811.04 171.59Q810.93 171.34 810.77 171.15Q810.61 170.97 810.37 170.87Q810.13 170.76 809.79 170.76L809.79 170.76Q808.98 170.76 808.62 171.39Q808.27 172.01 808.27 173.09L808.27 173.09L808.27 174.53Q808.27 175.61 808.62 176.24Q808.98 176.86 809.79 176.86L809.79 176.86Q810.13 176.86 810.37 176.76Q810.61 176.66 810.77 176.47Q810.93 176.28 811.04 176.03Q811.15 175.78 811.23 175.49L811.23 175.49L812.67 175.9Q812.54 176.39 812.31 176.81Q812.08 177.22 811.74 177.51Q811.39 177.81 810.91 177.98Q810.44 178.14 809.82 178.14M818.1 178.14L818.1 178.14Q817.02 178.14 816.26 177.77Q815.5 177.4 815.02 176.79L815.02 176.79L815.97 175.8Q816.44 176.34 816.98 176.6Q817.53 176.86 818.15 176.86L818.15 176.86Q818.87 176.86 819.26 176.54Q819.64 176.21 819.64 175.6L819.64 175.6Q819.64 175.1 819.35 174.84Q819.06 174.58 818.38 174.47L818.38 174.47L817.49 174.33Q816.33 174.12 815.84 173.48Q815.34 172.84 815.34 171.96L815.34 171.96Q815.34 170.76 816.12 170.12Q816.9 169.48 818.28 169.48L818.28 169.48Q819.27 169.48 819.98 169.79Q820.7 170.1 821.13 170.64L821.13 170.64L820.2 171.63Q819.87 171.23 819.4 171Q818.93 170.76 818.3 170.76L818.3 170.76Q816.93 170.76 816.93 171.89L816.93 171.89Q816.93 172.37 817.22 172.62Q817.5 172.88 818.2 173L818.2 173L819.08 173.15Q820.17 173.36 820.7 173.96Q821.22 174.56 821.22 175.49L821.22 175.49Q821.22 176.08 821.02 176.57Q820.82 177.05 820.42 177.41Q820.02 177.76 819.44 177.95Q818.86 178.14 818.1 178.14M826.7 178.14L826.7 178.14Q825.62 178.14 824.86 177.77Q824.1 177.4 823.62 176.79L823.62 176.79L824.57 175.8Q825.04 176.34 825.58 176.6Q826.13 176.86 826.75 176.86L826.75 176.86Q827.47 176.86 827.86 176.54Q828.24 176.21 828.24 175.6L828.24 175.6Q828.24 175.1 827.95 174.84Q827.66 174.58 826.98 174.47L826.98 174.47L826.09 174.33Q824.93 174.12 824.44 173.48Q823.94 172.84 823.94 171.96L823.94 171.96Q823.94 170.76 824.72 170.12Q825.5 169.48 826.88 169.48L826.88 169.48Q827.87 169.48 828.58 169.79Q829.3 170.1 829.73 170.64L829.73 170.64L828.8 171.63Q828.47 171.23 828 171Q827.53 170.76 826.9 170.76L826.9 170.76Q825.53 170.76 825.53 171.89L825.53 171.89Q825.53 172.37 825.82 172.62Q826.1 172.88 826.8 173L826.8 173L827.68 173.15Q828.77 173.36 829.3 173.96Q829.82 174.56 829.82 175.49L829.82 175.49Q829.82 176.08 829.62 176.57Q829.42 177.05 829.02 177.41Q828.62 177.76 828.04 177.95Q827.46 178.14 826.7 178.14" fill="#F0F0EC"/><path d="M1081.04 178L1075.42 178L1075.42 177.12L1077.82 177.12L1077.82 170.37L1077.74 170.37L1075.62 172.34L1075.04 171.7L1077.26 169.62L1078.83 169.62L1078.83 177.12L1081.04 177.12L1081.04 178M1085.32 173.18L1086.24 173.18Q1087.12 173.18 1087.55 172.79Q1087.99 172.4 1087.99 171.78L1087.99 171.78L1087.99 171.7Q1087.99 171.03 1087.57 170.69Q1087.14 170.36 1086.46 170.36L1086.46 170.36Q1085.78 170.36 1085.37 170.65Q1084.96 170.94 1084.69 171.42L1084.69 171.42L1083.94 170.85Q1084.09 170.6 1084.32 170.35Q1084.55 170.1 1084.85 169.91Q1085.16 169.72 1085.56 169.6Q1085.96 169.48 1086.48 169.48L1086.48 169.48Q1087.02 169.48 1087.49 169.62Q1087.96 169.76 1088.3 170.03Q1088.65 170.3 1088.85 170.69Q1089.05 171.09 1089.05 171.59L1089.05 171.59Q1089.05 172 1088.92 172.32Q1088.8 172.65 1088.57 172.89Q1088.35 173.13 1088.05 173.3Q1087.75 173.46 1087.42 173.55L1087.42 173.55L1087.42 173.6Q1087.76 173.67 1088.09 173.83Q1088.41 173.99 1088.66 174.25Q1088.92 174.51 1089.07 174.87Q1089.22 175.24 1089.22 175.71L1089.22 175.71Q1089.22 176.25 1089.01 176.7Q1088.8 177.15 1088.42 177.47Q1088.04 177.78 1087.51 177.96Q1086.97 178.14 1086.32 178.14L1086.32 178.14Q1085.77 178.14 1085.35 178.02Q1084.92 177.9 1084.59 177.7Q1084.26 177.5 1084.01 177.24Q1083.77 176.99 1083.58 176.72L1083.58 176.72L1084.33 176.14Q1084.5 176.39 1084.68 176.6Q1084.86 176.8 1085.09 176.95Q1085.33 177.1 1085.63 177.18Q1085.93 177.27 1086.32 177.27L1086.32 177.27Q1087.21 177.27 1087.69 176.86Q1088.16 176.45 1088.16 175.7L1088.16 175.7L1088.16 175.6Q1088.16 174.86 1087.7 174.45Q1087.24 174.04 1086.31 174.04L1086.31 174.04L1085.32 174.04L1085.32 173.18M1095.2 178.11L1095.2 178.11Q1094.71 178.11 1094.51 177.9Q1094.31 177.7 1094.31 177.39L1094.31 177.39L1094.31 177.17Q1094.31 176.86 1094.51 176.66Q1094.71 176.45 1095.2 176.45L1095.2 176.45Q1095.69 176.45 1095.89 176.66Q1096.09 176.86 1096.09 177.17L1096.09 177.17L1096.09 177.39Q1096.09 177.7 1095.89 177.9Q1095.69 178.11 1095.2 178.11M1106.84 178L1101.22 178L1101.22 177.12L1103.62 177.12L1103.62 170.37L1103.54 170.37L1101.42 172.34L1100.84 171.7L1103.06 169.62L1104.63 169.62L1104.63 177.12L1106.84 177.12L1106.84 178M1110.83 173.73L1110.83 173.73Q1110.04 173.73 1109.54 173.19Q1109.04 172.66 1109.04 171.6L1109.04 171.6Q1109.04 170.55 1109.54 170.01Q1110.04 169.48 1110.83 169.48L1110.83 169.48Q1111.62 169.48 1112.12 170.01Q1112.62 170.55 1112.62 171.6L1112.62 171.6Q1112.62 172.66 1112.12 173.19Q1111.62 173.73 1110.83 173.73M1110.83 173.08L1110.83 173.08Q1111.26 173.08 1111.53 172.78Q1111.8 172.48 1111.8 171.9L1111.8 171.9L1111.8 171.3Q1111.8 170.73 1111.53 170.43Q1111.26 170.13 1110.83 170.13L1110.83 170.13Q1110.4 170.13 1110.13 170.43Q1109.86 170.73 1109.86 171.3L1109.86 171.3L1109.86 171.9Q1109.86 172.48 1110.13 172.78Q1110.4 173.08 1110.83 173.08M1113 173.22L1114.92 169.62L1115.78 169.62L1113.86 173.22L1113 173.22M1109.02 178L1110.94 174.4L1111.8 174.4L1109.88 178L1109.02 178M1113.97 178.14L1113.97 178.14Q1113.18 178.14 1112.68 177.61Q1112.18 177.08 1112.18 176.02L1112.18 176.02Q1112.18 174.96 1112.68 174.43Q1113.18 173.9 1113.97 173.9L1113.97 173.9Q1114.76 173.9 1115.26 174.43Q1115.76 174.96 1115.76 176.02L1115.76 176.02Q1115.76 177.08 1115.26 177.61Q1114.76 178.14 1113.97 178.14M1113.97 177.5L1113.97 177.5Q1114.4 177.5 1114.67 177.2Q1114.94 176.9 1114.94 176.32L1114.94 176.32L1114.94 175.72Q1114.94 175.14 1114.67 174.84Q1114.4 174.54 1113.97 174.54L1113.97 174.54Q1113.54 174.54 1113.27 174.84Q1113 175.14 1113 175.72L1113 175.72L1113 176.32Q1113 176.9 1113.27 177.2Q1113.54 177.5 1113.97 177.5" fill="#9A9A9F"/>
  <rect x="60" y="196" width="14" height="14" fill="url(#lang-rules)"/><rect x="60" y="196" width="14" height="14" fill="none" stroke="#26262A"/><path d="M92.9 200.92L90.38 200.92L90.38 208L88.82 208L88.82 200.92L86.3 200.92L86.3 199.62L92.9 199.62L92.9 200.92M98.98 208L97.42 208L97.42 204.94L94.7 199.62L96.45 199.62L97.42 201.64L98.18 203.36L98.26 203.36L99.03 201.64L100.01 199.62L101.7 199.62L98.98 204.94L98.98 208M105.73 208L104.16 208L104.16 199.62L107.34 199.62Q108.56 199.62 109.21 200.32Q109.86 201.02 109.86 202.22L109.86 202.22Q109.86 203.42 109.21 204.11Q108.56 204.81 107.34 204.81L107.34 204.81L105.73 204.81L105.73 208M105.73 200.91L105.73 203.52L107.02 203.52Q107.65 203.52 107.93 203.27Q108.2 203.01 108.2 202.44L108.2 202.44L108.2 201.99Q108.2 201.42 107.93 201.17Q107.65 200.91 107.02 200.91L107.02 200.91L105.73 200.91M118.09 208L112.8 208L112.8 199.62L118.09 199.62L118.09 200.92L114.37 200.92L114.37 203.1L117.96 203.1L117.96 204.4L114.37 204.4L114.37 206.7L118.09 206.7L118.09 208M123.9 208.14L123.9 208.14Q122.82 208.14 122.06 207.77Q121.3 207.4 120.82 206.79L120.82 206.79L121.77 205.8Q122.24 206.34 122.78 206.6Q123.33 206.86 123.95 206.86L123.95 206.86Q124.67 206.86 125.06 206.54Q125.44 206.21 125.44 205.6L125.44 205.6Q125.44 205.1 125.15 204.84Q124.86 204.58 124.18 204.47L124.18 204.47L123.29 204.33Q122.13 204.12 121.64 203.48Q121.14 202.84 121.14 201.96L121.14 201.96Q121.14 200.76 121.92 200.12Q122.7 199.48 124.08 199.48L124.08 199.48Q125.07 199.48 125.78 199.79Q126.5 200.1 126.93 200.64L126.93 200.64L126 201.63Q125.67 201.23 125.2 201Q124.73 200.76 124.1 200.76L124.1 200.76Q122.73 200.76 122.73 201.89L122.73 201.89Q122.73 202.37 123.02 202.62Q123.3 202.88 124 203L124 203L124.88 203.15Q125.97 203.36 126.5 203.96Q127.02 204.56 127.02 205.49L127.02 205.49Q127.02 206.08 126.82 206.57Q126.62 207.05 126.22 207.41Q125.82 207.76 125.24 207.95Q124.66 208.14 123.9 208.14M132.82 208.14L132.82 208.14Q131.17 208.14 130.39 207.02Q129.6 205.89 129.6 203.81L129.6 203.81Q129.6 201.75 130.39 200.61Q131.17 199.48 132.82 199.48L132.82 199.48Q133.44 199.48 133.91 199.65Q134.39 199.82 134.74 200.11Q135.08 200.4 135.31 200.82Q135.54 201.23 135.67 201.72L135.67 201.72L134.23 202.13Q134.15 201.84 134.04 201.59Q133.93 201.34 133.77 201.15Q133.61 200.97 133.37 200.87Q133.13 200.76 132.79 200.76L132.79 200.76Q131.98 200.76 131.62 201.39Q131.27 202.01 131.27 203.09L131.27 203.09L131.27 204.53Q131.27 205.61 131.62 206.24Q131.98 206.86 132.79 206.86L132.79 206.86Q133.13 206.86 133.37 206.76Q133.61 206.66 133.77 206.47Q133.93 206.28 134.04 206.03Q134.15 205.78 134.23 205.49L134.23 205.49L135.67 205.9Q135.54 206.39 135.31 206.81Q135.08 207.22 134.74 207.51Q134.39 207.81 133.91 207.98Q133.44 208.14 132.82 208.14M140.13 204.75L140.13 208L138.56 208L138.56 199.62L141.74 199.62Q142.96 199.62 143.61 200.32Q144.26 201.02 144.26 202.22L144.26 202.22Q144.26 203.14 143.83 203.77Q143.41 204.4 142.62 204.57L142.62 204.57L144.4 208L142.68 208L141.08 204.75L140.13 204.75M140.13 203.52L141.42 203.52Q142.05 203.52 142.33 203.27Q142.6 203.01 142.6 202.44L142.6 202.44L142.6 201.99Q142.6 201.42 142.33 201.17Q142.05 200.91 141.42 200.91L141.42 200.91L140.13 200.91L140.13 203.52M152.46 208L147.14 208L147.14 206.82L149.02 206.82L149.02 200.8L147.14 200.8L147.14 199.62L152.46 199.62L152.46 200.8L150.58 200.8L150.58 206.82L152.46 206.82L152.46 208M157.33 208L155.76 208L155.76 199.62L158.94 199.62Q160.16 199.62 160.81 200.32Q161.46 201.02 161.46 202.22L161.46 202.22Q161.46 203.42 160.81 204.11Q160.16 204.81 158.94 204.81L158.94 204.81L157.33 204.81L157.33 208M157.33 200.91L157.33 203.52L158.62 203.52Q159.25 203.52 159.53 203.27Q159.8 203.01 159.8 202.44L159.8 202.44L159.8 201.99Q159.8 201.42 159.53 201.17Q159.25 200.91 158.62 200.91L158.62 200.91L157.33 200.91M170.3 200.92L167.78 200.92L167.78 208L166.22 208L166.22 200.92L163.7 200.92L163.7 199.62L170.3 199.62L170.3 200.92" fill="#F0F0EC"/><path d="M361.04 208L355.42 208L355.42 207.12L357.82 207.12L357.82 200.37L357.74 200.37L355.62 202.34L355.04 201.7L357.26 199.62L358.83 199.62L358.83 207.12L361.04 207.12L361.04 208M366.6 208.14L366.6 208.14Q365.83 208.14 365.28 207.85Q364.73 207.56 364.37 207Q364.01 206.45 363.84 205.65Q363.67 204.84 363.67 203.81L363.67 203.81Q363.67 202.79 363.84 201.98Q364.01 201.17 364.37 200.62Q364.73 200.07 365.28 199.77Q365.83 199.48 366.6 199.48L366.6 199.48Q367.37 199.48 367.92 199.77Q368.47 200.07 368.83 200.62Q369.19 201.17 369.36 201.98Q369.53 202.79 369.53 203.81L369.53 203.81Q369.53 204.84 369.36 205.65Q369.19 206.45 368.83 207Q368.47 207.56 367.92 207.85Q367.37 208.14 366.6 208.14M366.6 207.27L366.6 207.27Q367.1 207.27 367.46 207.07Q367.82 206.87 368.05 206.51Q368.27 206.15 368.38 205.64Q368.48 205.13 368.48 204.5L368.48 204.5L368.48 203.13Q368.48 202.5 368.38 201.99Q368.27 201.47 368.05 201.11Q367.82 200.75 367.46 200.55Q367.1 200.36 366.6 200.36L366.6 200.36Q366.1 200.36 365.74 200.55Q365.38 200.75 365.15 201.11Q364.93 201.47 364.82 201.99Q364.72 202.5 364.72 203.13L364.72 203.13L364.72 204.5Q364.72 205.13 364.82 205.64Q364.93 206.15 365.15 206.51Q365.38 206.87 365.74 207.07Q366.1 207.27 366.6 207.27M366.6 204.52L366.6 204.52Q366.18 204.52 366.02 204.35Q365.86 204.18 365.86 203.94L365.86 203.94L365.86 203.68Q365.86 203.44 366.02 203.27Q366.18 203.1 366.6 203.1L366.6 203.1Q367.02 203.1 367.18 203.27Q367.34 203.44 367.34 203.68L367.34 203.68L367.34 203.94Q367.34 204.18 367.18 204.35Q367.02 204.52 366.6 204.52M375.2 208.11L375.2 208.11Q374.71 208.11 374.51 207.9Q374.31 207.7 374.31 207.39L374.31 207.39L374.31 207.17Q374.31 206.86 374.51 206.66Q374.71 206.45 375.2 206.45L375.2 206.45Q375.69 206.45 375.89 206.66Q376.09 206.86 376.09 207.17L376.09 207.17L376.09 207.39Q376.09 207.7 375.89 207.9Q375.69 208.11 375.2 208.11M386.84 208L381.22 208L381.22 207.12L383.62 207.12L383.62 200.37L383.54 200.37L381.42 202.34L380.84 201.7L383.06 199.62L384.63 199.62L384.63 207.12L386.84 207.12L386.84 208M390.83 203.73L390.83 203.73Q390.04 203.73 389.54 203.19Q389.04 202.66 389.04 201.6L389.04 201.6Q389.04 200.55 389.54 200.01Q390.04 199.48 390.83 199.48L390.83 199.48Q391.62 199.48 392.12 200.01Q392.62 200.55 392.62 201.6L392.62 201.6Q392.62 202.66 392.12 203.19Q391.62 203.73 390.83 203.73M390.83 203.08L390.83 203.08Q391.26 203.08 391.53 202.78Q391.8 202.48 391.8 201.9L391.8 201.9L391.8 201.3Q391.8 200.73 391.53 200.43Q391.26 200.13 390.83 200.13L390.83 200.13Q390.4 200.13 390.13 200.43Q389.86 200.73 389.86 201.3L389.86 201.3L389.86 201.9Q389.86 202.48 390.13 202.78Q390.4 203.08 390.83 203.08M393 203.22L394.92 199.62L395.78 199.62L393.86 203.22L393 203.22M389.02 208L390.94 204.4L391.8 204.4L389.88 208L389.02 208M393.97 208.14L393.97 208.14Q393.18 208.14 392.68 207.61Q392.18 207.08 392.18 206.02L392.18 206.02Q392.18 204.96 392.68 204.43Q393.18 203.9 393.97 203.9L393.97 203.9Q394.76 203.9 395.26 204.43Q395.76 204.96 395.76 206.02L395.76 206.02Q395.76 207.08 395.26 207.61Q394.76 208.14 393.97 208.14M393.97 207.5L393.97 207.5Q394.4 207.5 394.67 207.2Q394.94 206.9 394.94 206.32L394.94 206.32L394.94 205.72Q394.94 205.14 394.67 204.84Q394.4 204.54 393.97 204.54L393.97 204.54Q393.54 204.54 393.27 204.84Q393 205.14 393 205.72L393 205.72L393 206.32Q393 206.9 393.27 207.2Q393.54 207.5 393.97 207.5" fill="#9A9A9F"/>
  <rect x="420" y="196" width="14" height="14" fill="url(#lang-columns)"/><rect x="420" y="196" width="14" height="14" fill="none" stroke="#26262A"/><path d="M449.82 208.14L449.82 208.14Q448.17 208.14 447.39 207.02Q446.6 205.89 446.6 203.81L446.6 203.81Q446.6 201.75 447.39 200.61Q448.17 199.48 449.82 199.48L449.82 199.48Q450.44 199.48 450.91 199.65Q451.39 199.82 451.74 200.11Q452.08 200.4 452.31 200.82Q452.54 201.23 452.67 201.72L452.67 201.72L451.23 202.13Q451.15 201.84 451.04 201.59Q450.93 201.34 450.77 201.15Q450.61 200.97 450.37 200.87Q450.13 200.76 449.79 200.76L449.79 200.76Q448.98 200.76 448.62 201.39Q448.27 202.01 448.27 203.09L448.27 203.09L448.27 204.53Q448.27 205.61 448.62 206.24Q448.98 206.86 449.79 206.86L449.79 206.86Q450.13 206.86 450.37 206.76Q450.61 206.66 450.77 206.47Q450.93 206.28 451.04 206.03Q451.15 205.78 451.23 205.49L451.23 205.49L452.67 205.9Q452.54 206.39 452.31 206.81Q452.08 207.22 451.74 207.51Q451.39 207.81 450.91 207.98Q450.44 208.14 449.82 208.14M455.69 208L456.11 205.59L454.73 205.59L454.73 204.44L456.33 204.44L456.53 203.19L455.19 203.19L455.19 202.04L456.75 202.04L457.17 199.62L458.42 199.62L456.94 208L455.69 208M457.98 208L459.46 199.62L460.71 199.62L460.29 202.04L461.67 202.04L461.67 203.19L460.07 203.19L459.87 204.44L461.21 204.44L461.21 205.59L459.65 205.59L459.23 208L457.98 208" fill="#F0F0EC"/><path d="M729.44 207.12L729.44 208L723.85 208L723.85 206.97L726.65 204.45Q727.26 203.9 727.66 203.31Q728.05 202.73 728.05 202.08L728.05 202.08L728.05 201.94Q728.05 201.18 727.66 200.77Q727.26 200.36 726.48 200.36L726.48 200.36Q725.71 200.36 725.3 200.75Q724.88 201.14 724.68 201.78L724.68 201.78L723.78 201.45Q723.9 201.08 724.11 200.72Q724.32 200.37 724.64 200.09Q724.97 199.82 725.43 199.65Q725.89 199.48 726.5 199.48L726.5 199.48Q727.13 199.48 727.61 199.66Q728.1 199.84 728.43 200.16Q728.76 200.49 728.93 200.93Q729.11 201.38 729.11 201.9L729.11 201.9Q729.11 202.38 728.97 202.8Q728.83 203.22 728.59 203.61Q728.34 203.99 728 204.36Q727.66 204.72 727.24 205.08L727.24 205.08L724.9 207.12L729.44 207.12M735.2 208.11L735.2 208.11Q734.71 208.11 734.51 207.9Q734.31 207.7 734.31 207.39L734.31 207.39L734.31 207.17Q734.31 206.86 734.51 206.66Q734.71 206.45 735.2 206.45L735.2 206.45Q735.69 206.45 735.89 206.66Q736.09 206.86 736.09 207.17L736.09 207.17L736.09 207.39Q736.09 207.7 735.89 207.9Q735.69 208.11 735.2 208.11M746.64 207.12L746.64 208L741.05 208L741.05 206.97L743.85 204.45Q744.46 203.9 744.86 203.31Q745.25 202.73 745.25 202.08L745.25 202.08L745.25 201.94Q745.25 201.18 744.86 200.77Q744.46 200.36 743.68 200.36L743.68 200.36Q742.91 200.36 742.5 200.75Q742.08 201.14 741.88 201.78L741.88 201.78L740.98 201.45Q741.1 201.08 741.31 200.72Q741.52 200.37 741.84 200.09Q742.17 199.82 742.63 199.65Q743.09 199.48 743.7 199.48L743.7 199.48Q744.33 199.48 744.81 199.66Q745.3 199.84 745.63 200.16Q745.96 200.49 746.13 200.93Q746.31 201.38 746.31 201.9L746.31 201.9Q746.31 202.38 746.17 202.8Q746.03 203.22 745.79 203.61Q745.54 203.99 745.2 204.36Q744.86 204.72 744.44 205.08L744.44 205.08L742.1 207.12L746.64 207.12M750.83 203.73L750.83 203.73Q750.04 203.73 749.54 203.19Q749.04 202.66 749.04 201.6L749.04 201.6Q749.04 200.55 749.54 200.01Q750.04 199.48 750.83 199.48L750.83 199.48Q751.62 199.48 752.12 200.01Q752.62 200.55 752.62 201.6L752.62 201.6Q752.62 202.66 752.12 203.19Q751.62 203.73 750.83 203.73M750.83 203.08L750.83 203.08Q751.26 203.08 751.53 202.78Q751.8 202.48 751.8 201.9L751.8 201.9L751.8 201.3Q751.8 200.73 751.53 200.43Q751.26 200.13 750.83 200.13L750.83 200.13Q750.4 200.13 750.13 200.43Q749.86 200.73 749.86 201.3L749.86 201.3L749.86 201.9Q749.86 202.48 750.13 202.78Q750.4 203.08 750.83 203.08M753 203.22L754.92 199.62L755.78 199.62L753.86 203.22L753 203.22M749.02 208L750.94 204.4L751.8 204.4L749.88 208L749.02 208M753.97 208.14L753.97 208.14Q753.18 208.14 752.68 207.61Q752.18 207.08 752.18 206.02L752.18 206.02Q752.18 204.96 752.68 204.43Q753.18 203.9 753.97 203.9L753.97 203.9Q754.76 203.9 755.26 204.43Q755.76 204.96 755.76 206.02L755.76 206.02Q755.76 207.08 755.26 207.61Q754.76 208.14 753.97 208.14M753.97 207.5L753.97 207.5Q754.4 207.5 754.67 207.2Q754.94 206.9 754.94 206.32L754.94 206.32L754.94 205.72Q754.94 205.14 754.67 204.84Q754.4 204.54 753.97 204.54L753.97 204.54Q753.54 204.54 753.27 204.84Q753 205.14 753 205.72L753 205.72L753 206.32Q753 206.9 753.27 207.2Q753.54 207.5 753.97 207.5" fill="#9A9A9F"/>
  <rect x="780" y="196" width="14" height="14" fill="url(#lang-grain)"/><rect x="780" y="196" width="14" height="14" fill="none" stroke="#26262A"/><path d="M809.6 208.14L809.6 208.14Q808.78 208.14 808.18 207.85Q807.58 207.56 807.19 207Q806.8 206.45 806.62 205.65Q806.43 204.84 806.43 203.81L806.43 203.81Q806.43 202.79 806.62 201.98Q806.8 201.17 807.19 200.62Q807.58 200.07 808.18 199.77Q808.78 199.48 809.6 199.48L809.6 199.48Q811.23 199.48 812 200.62Q812.77 201.76 812.77 203.81L812.77 203.81Q812.77 205.86 812 207Q811.23 208.14 809.6 208.14M809.6 206.86L809.6 206.86Q810.02 206.86 810.31 206.7Q810.6 206.54 810.77 206.24Q810.94 205.94 811.02 205.5Q811.1 205.06 811.1 204.52L811.1 204.52L811.1 203.09Q811.1 202.01 810.77 201.39Q810.44 200.76 809.6 200.76L809.6 200.76Q808.76 200.76 808.43 201.39Q808.1 202.01 808.1 203.09L808.1 203.09L808.1 204.53Q808.1 205.61 808.43 206.24Q808.76 206.86 809.6 206.86M821.5 200.92L818.98 200.92L818.98 208L817.42 208L817.42 200.92L814.9 200.92L814.9 199.62L821.5 199.62L821.5 200.92M828.02 208L828.02 204.4L825.58 204.4L825.58 208L824 208L824 199.62L825.58 199.62L825.58 203.1L828.02 203.1L828.02 199.62L829.6 199.62L829.6 208L828.02 208M838.09 208L832.8 208L832.8 199.62L838.09 199.62L838.09 200.92L834.37 200.92L834.37 203.1L837.96 203.1L837.96 204.4L834.37 204.4L834.37 206.7L838.09 206.7L838.09 208M842.93 204.75L842.93 208L841.36 208L841.36 199.62L844.54 199.62Q845.76 199.62 846.41 200.32Q847.06 201.02 847.06 202.22L847.06 202.22Q847.06 203.14 846.63 203.77Q846.21 204.4 845.42 204.57L845.42 204.57L847.2 208L845.48 208L843.88 204.75L842.93 204.75M842.93 203.52L844.22 203.52Q844.85 203.52 845.13 203.27Q845.4 203.01 845.4 202.44L845.4 202.44L845.4 201.99Q845.4 201.42 845.13 201.17Q844.85 200.91 844.22 200.91L844.22 200.91L842.93 200.91L842.93 203.52" fill="#F0F0EC"/><path d="M1086.6 208.14L1086.6 208.14Q1085.83 208.14 1085.28 207.85Q1084.73 207.56 1084.37 207Q1084.01 206.45 1083.84 205.65Q1083.67 204.84 1083.67 203.81L1083.67 203.81Q1083.67 202.79 1083.84 201.98Q1084.01 201.17 1084.37 200.62Q1084.73 200.07 1085.28 199.77Q1085.83 199.48 1086.6 199.48L1086.6 199.48Q1087.37 199.48 1087.92 199.77Q1088.47 200.07 1088.83 200.62Q1089.19 201.17 1089.36 201.98Q1089.53 202.79 1089.53 203.81L1089.53 203.81Q1089.53 204.84 1089.36 205.65Q1089.19 206.45 1088.83 207Q1088.47 207.56 1087.92 207.85Q1087.37 208.14 1086.6 208.14M1086.6 207.27L1086.6 207.27Q1087.1 207.27 1087.46 207.07Q1087.82 206.87 1088.05 206.51Q1088.27 206.15 1088.38 205.64Q1088.48 205.13 1088.48 204.5L1088.48 204.5L1088.48 203.13Q1088.48 202.5 1088.38 201.99Q1088.27 201.47 1088.05 201.11Q1087.82 200.75 1087.46 200.55Q1087.1 200.36 1086.6 200.36L1086.6 200.36Q1086.1 200.36 1085.74 200.55Q1085.38 200.75 1085.15 201.11Q1084.93 201.47 1084.82 201.99Q1084.72 202.5 1084.72 203.13L1084.72 203.13L1084.72 204.5Q1084.72 205.13 1084.82 205.64Q1084.93 206.15 1085.15 206.51Q1085.38 206.87 1085.74 207.07Q1086.1 207.27 1086.6 207.27M1086.6 204.52L1086.6 204.52Q1086.18 204.52 1086.02 204.35Q1085.86 204.18 1085.86 203.94L1085.86 203.94L1085.86 203.68Q1085.86 203.44 1086.02 203.27Q1086.18 203.1 1086.6 203.1L1086.6 203.1Q1087.02 203.1 1087.18 203.27Q1087.34 203.44 1087.34 203.68L1087.34 203.68L1087.34 203.94Q1087.34 204.18 1087.18 204.35Q1087.02 204.52 1086.6 204.52M1095.2 208.11L1095.2 208.11Q1094.71 208.11 1094.51 207.9Q1094.31 207.7 1094.31 207.39L1094.31 207.39L1094.31 207.17Q1094.31 206.86 1094.51 206.66Q1094.71 206.45 1095.2 206.45L1095.2 206.45Q1095.69 206.45 1095.89 206.66Q1096.09 206.86 1096.09 207.17L1096.09 207.17L1096.09 207.39Q1096.09 207.7 1095.89 207.9Q1095.69 208.11 1095.2 208.11M1103.36 208L1102.28 208L1105.55 200.49L1101.88 200.49L1101.88 202.05L1100.98 202.05L1100.98 199.62L1106.57 199.62L1106.57 200.51L1103.36 208M1110.83 203.73L1110.83 203.73Q1110.04 203.73 1109.54 203.19Q1109.04 202.66 1109.04 201.6L1109.04 201.6Q1109.04 200.55 1109.54 200.01Q1110.04 199.48 1110.83 199.48L1110.83 199.48Q1111.62 199.48 1112.12 200.01Q1112.62 200.55 1112.62 201.6L1112.62 201.6Q1112.62 202.66 1112.12 203.19Q1111.62 203.73 1110.83 203.73M1110.83 203.08L1110.83 203.08Q1111.26 203.08 1111.53 202.78Q1111.8 202.48 1111.8 201.9L1111.8 201.9L1111.8 201.3Q1111.8 200.73 1111.53 200.43Q1111.26 200.13 1110.83 200.13L1110.83 200.13Q1110.4 200.13 1110.13 200.43Q1109.86 200.73 1109.86 201.3L1109.86 201.3L1109.86 201.9Q1109.86 202.48 1110.13 202.78Q1110.4 203.08 1110.83 203.08M1113 203.22L1114.92 199.62L1115.78 199.62L1113.86 203.22L1113 203.22M1109.02 208L1110.94 204.4L1111.8 204.4L1109.88 208L1109.02 208M1113.97 208.14L1113.97 208.14Q1113.18 208.14 1112.68 207.61Q1112.18 207.08 1112.18 206.02L1112.18 206.02Q1112.18 204.96 1112.68 204.43Q1113.18 203.9 1113.97 203.9L1113.97 203.9Q1114.76 203.9 1115.26 204.43Q1115.76 204.96 1115.76 206.02L1115.76 206.02Q1115.76 207.08 1115.26 207.61Q1114.76 208.14 1113.97 208.14M1113.97 207.5L1113.97 207.5Q1114.4 207.5 1114.67 207.2Q1114.94 206.9 1114.94 206.32L1114.94 206.32L1114.94 205.72Q1114.94 205.14 1114.67 204.84Q1114.4 204.54 1113.97 204.54L1113.97 204.54Q1113.54 204.54 1113.27 204.84Q1113 205.14 1113 205.72L1113 205.72L1113 206.32Q1113 206.9 1113.27 207.2Q1113.54 207.5 1113.97 207.5" fill="#9A9A9F"/>
</g>
<g class="scan" opacity="0"><rect x="0" y="-2" width="1200" height="2" fill="#F0F0EC"/><rect x="0" y="0" width="1200" height="10" fill="#F0F0EC" opacity="0.06"/></g>
</svg>
